<?xml version="1.0" encoding="UTF-8" standalone="no"?>
<!-- Generator: Adobe Illustrator 19.1.1, SVG Export Plug-In . SVG Version: 6.00 Build 0)  -->

<svg
   xmlns:dc="http://purl.org/dc/elements/1.1/"
   xmlns:cc="http://creativecommons.org/ns#"
   xmlns:rdf="http://www.w3.org/1999/02/22-rdf-syntax-ns#"
   xmlns:svg="http://www.w3.org/2000/svg"
   xmlns="http://www.w3.org/2000/svg"
   xmlns:sodipodi="http://sodipodi.sourceforge.net/DTD/sodipodi-0.dtd"
   xmlns:inkscape="http://www.inkscape.org/namespaces/inkscape"
   version="1.1"
   id="Layer_1"
   x="0px"
   y="0px"
   viewBox="0 0 100 100"
   xml:space="preserve"
   inkscape:version="0.91 r13725"
   sodipodi:docname="avatar.svg"
   width="100"
   height="100"><metadata
     id="metadata3446"><rdf:RDF><cc:Work
         rdf:about=""><dc:format>image/svg+xml</dc:format><dc:type
           rdf:resource="http://purl.org/dc/dcmitype/StillImage" /><dc:title /></cc:Work></rdf:RDF></metadata><defs
     id="defs3444" /><sodipodi:namedview
     pagecolor="#ffffff"
     bordercolor="#666666"
     borderopacity="1"
     objecttolerance="10"
     gridtolerance="10"
     guidetolerance="10"
     inkscape:pageopacity="0"
     inkscape:pageshadow="2"
     inkscape:window-width="1491"
     inkscape:window-height="1073"
     id="namedview3442"
     showgrid="false"
     inkscape:zoom="5"
     inkscape:cx="14"
     inkscape:cy="24"
     inkscape:window-x="555"
     inkscape:window-y="303"
     inkscape:window-maximized="0"
     inkscape:current-layer="Layer_1" /><circle
     style="fill:#beffd4;fill-rule:evenodd;stroke:#beffd4;stroke-width:0.99;stroke-linecap:butt;stroke-linejoin:miter;stroke-opacity:1;fill-opacity:1;stroke-miterlimit:4;stroke-dasharray:none"
     id="path3350"
     cx="50"
     cy="50"
     r="49.504951" /><g
     id="g3448"
     transform="matrix(1.6253969,0,0,1.6253969,10.990476,-76.887308)"><rect
       id="rect3412"
       height="13.731"
       width="12"
       style="fill:#3e2723"
       y="65.25"
       x="27" /><path
       inkscape:connector-curvature="0"
       id="path3414"
       d="m 36.75,78 0,0 c 0,0 -2.219,-0.313 -3.75,-0.313 -1.531,0 -3.75,0.313 -3.75,0.313 0,0 -8.25,1.527 -8.25,10 l 24,0 C 45,79.559 36.75,78 36.75,78"
       style="fill:#2196f3" /><path
       inkscape:connector-curvature="0"
       id="path3416"
       d="M 33,81.75 C 31.561,81.75 29.5,78 29.5,78 l 0,-5 7,0 0,5 c 0,0 -2.061,3.75 -3.5,3.75"
       style="fill:#ef8d3c" /><path
       inkscape:connector-curvature="0"
       id="path3418"
       d="m 40,70 c 0,3.728 -3.272,7 -7,7 -3.729,0 -7,-3.272 -7,-7 l 0,-6 c 0,-3.728 14,-5.726 14,0 l 0,6 z m -7,13 c 2.901,0 3.5,-5 3.5,-5 0,0 -1.864,3 -3.5,3 -1.636,0 -3.5,-3 -3.5,-3 0,0 0.599,5 3.5,5"
       style="fill:#ffaa45" /><path
       inkscape:connector-curvature="0"
       id="path3420"
       d="m 33,85 c 3.552,0 5.066,-3.932 5.443,-6.467 C 37.456,78.14 36.75,78 36.75,78 c 0,0 -0.103,-0.014 -0.25,-0.033 l 0,0.033 c 0,0 -0.599,5 -3.5,5 -2.901,0 -3.5,-5 -3.5,-5 l 0,-0.033 C 29.353,77.986 29.25,78 29.25,78 c 0,0 -0.706,0.137 -1.694,0.528 C 27.932,81.063 29.446,85 33,85 Z"
       style="fill:#0d47a1" /><path
       inkscape:connector-curvature="0"
       id="path3422"
       d="m 35,69 c 0,-0.551 0.448,-1 1,-1 0.552,0 1,0.449 1,1 0,0.551 -0.448,1 -1,1 -0.552,0 -1,-0.449 -1,-1 m -6,0 c 0,0.551 0.448,1 1,1 0.552,0 1,-0.449 1,-1 0,-0.551 -0.448,-1 -1,-1 -0.552,0 -1,0.449 -1,1"
       style="fill:#784719" /><path
       inkscape:connector-curvature="0"
       id="path3424"
       d="m 33,58 c -4.556,0 -11,2.089 -11,17 l 5,3.98 0,-10.98 9,-5 3,4 0,12 5,-5 C 44,70.981 43.745,59.5 36,59.5 L 35,58 33,58 Z"
       style="fill:#4e342e" /><path
       inkscape:connector-curvature="0"
       id="path3426"
       d="M 23,75.5 C 23,76.328 22.328,77 21.5,77 20.671,77 20,76.328 20,75.5 20,74.672 20.671,74 21.5,74 c 0.828,0 1.5,0.672 1.5,1.5 m -13,0 C 10,74.672 9.328,74 8.5,74 7.672,74 7,74.672 7,75.5 7,76.328 7.672,77 8.5,77 9.328,77 10,76.328 10,75.5"
       style="fill:#ffa726" /><path
       inkscape:connector-curvature="0"
       id="path3428"
       d="m 19,84 c 0,0 0,4 -4,4 -4,0 -4,-4 -4,-4"
       style="fill:#ff9800" /><path
       inkscape:connector-curvature="0"
       id="path3430"
       d="m 18.75,84 0,0 L 15,84.77 11.25,84 C 11.25,84 3,85.527 3,94 l 24,0 C 27,85.559 18.75,84 18.75,84"
       style="fill:#4fc3f7" /><path
       inkscape:connector-curvature="0"
       id="path3432"
       d="m 15,88 c -4,0 -4,-4 -4,-4 l 0,-4 8,0 0,4 c 0,0 0,4 -4,4 z"
       style="fill:#ff9800" /><path
       inkscape:connector-curvature="0"
       id="path3434"
       d="m 22,71.68 c 0,-5.879 -14,-3.828 -14,0 l 0,4.391 C 8,79.895 11.133,83 15,83 c 3.866,0 7,-3.105 7,-6.93 l 0,-4.39 z"
       style="fill:#ffb74d" /><path
       inkscape:connector-curvature="0"
       id="path3436"
       d="m 15,90 c 3.059,0 5.578,-2.292 5.948,-5.25 C 20.064,84.352 19.345,84.143 18.994,84.057 18.963,86.238 17.19,88 15,88 12.81,88 11.036,86.238 11.006,84.055 10.653,84.141 9.935,84.348 9.051,84.743 9.417,87.705 11.939,90 15,90 Z"
       style="fill:#01579b" /><path
       inkscape:connector-curvature="0"
       id="path3438"
       d="m 15,64 c -4.86,0 -8,4.313 -8,8.172 L 7,74 l 2,2 0,-4 9.2,-3 2.8,3 0,4 2,-2 0,-0.809 c 0,-3.218 -0.831,-6.803 -4.8,-7.592 L 17.399,64 15,64 Z"
       style="fill:#795548" /><path
       inkscape:connector-curvature="0"
       id="path3440"
       d="m 17,75 c 0,-0.551 0.448,-1 1,-1 0.552,0 1,0.449 1,1 0,0.551 -0.448,1 -1,1 -0.552,0 -1,-0.449 -1,-1 m -6,0 c 0,0.551 0.448,1 1,1 0.552,0 1,-0.449 1,-1 0,-0.551 -0.448,-1 -1,-1 -0.552,0 -1,0.449 -1,1"
       style="fill:#784719" /></g></svg>