<?xml version="1.0" encoding="UTF-8" standalone="no"?>
<!-- Generator: Adobe Illustrator 19.0.0, SVG Export Plug-In . SVG Version: 6.00 Build 0)  -->

<svg
   xmlns:dc="http://purl.org/dc/elements/1.1/"
   xmlns:cc="http://creativecommons.org/ns#"
   xmlns:rdf="http://www.w3.org/1999/02/22-rdf-syntax-ns#"
   xmlns:svg="http://www.w3.org/2000/svg"
   xmlns="http://www.w3.org/2000/svg"
   xmlns:sodipodi="http://sodipodi.sourceforge.net/DTD/sodipodi-0.dtd"
   xmlns:inkscape="http://www.inkscape.org/namespaces/inkscape"
   version="1.1"
   id="Layer_1"
   x="0px"
   y="0px"
   viewBox="0 0 40.000001 40.000001"
   xml:space="preserve"
   inkscape:version="0.91 r13725"
   sodipodi:docname="computer.svg"
   width="40"
   height="40"><metadata
     id="metadata53"><rdf:RDF><cc:Work
         rdf:about=""><dc:format>image/svg+xml</dc:format><dc:type
           rdf:resource="http://purl.org/dc/dcmitype/StillImage" /><dc:title></dc:title></cc:Work></rdf:RDF></metadata><defs
     id="defs51" /><sodipodi:namedview
     pagecolor="#ffffff"
     bordercolor="#666666"
     borderopacity="1"
     objecttolerance="10"
     gridtolerance="10"
     guidetolerance="10"
     inkscape:pageopacity="0"
     inkscape:pageshadow="2"
     inkscape:window-width="1855"
     inkscape:window-height="1056"
     id="namedview49"
     showgrid="false"
     inkscape:zoom="14.980471"
     inkscape:cx="14.843293"
     inkscape:cy="24.944442"
     inkscape:window-x="65"
     inkscape:window-y="24"
     inkscape:window-maximized="1"
     inkscape:current-layer="Layer_1" /><circle
     style="fill:#90dfaa"
     cx="20"
     cy="20"
     r="20"
     id="circle3" /><path
     style="fill:#324a5e"
     d="m 31.874934,30.124969 -23.7499505,0 c -0.34372,0 -0.625,-0.28128 -0.625,-0.625 l 0,-19.03128 c 0,-0.34372 0.28128,-0.6249996 0.625,-0.6249996 l 23.7499505,0 c 0.34373,0 0.62501,0.2812796 0.62501,0.6249996 l 0,19.0312 c 0,0.3438 -0.28128,0.62508 -0.62501,0.62508 z"
     id="path5"
     inkscape:connector-curvature="0" /><rect
     x="9.375"
     y="11.718704"
     style="fill:#ffffff"
     width="21.249931"
     height="16.53125"
     id="rect7" /><path
     style="fill:#f1543f"
     d="m 25.906164,31.468689 0,-1.34372 -11.81241,0 0,1.34372 c 0,0.56248 -0.46877,0.99999 -1.03125,0.99999 l 0,0 c -0.56248,0 -0.99999,0.46877 -0.99999,1.03125 l 0,0 c 0,0.21876 0.18749,0.40625 0.40624,0.40625 l 15.06249,0 c 0.21875,0 0.40625,-0.18749 0.40625,-0.40625 l 0,0 c 0,-0.56248 -0.46878,-1.03125 -1.03126,-1.03125 l 0,0 c -0.53129,0 -1.00007,-0.43751 -1.00007,-0.99999 z"
     id="path9"
     inkscape:connector-curvature="0" /><rect
     x="25.124924"
     y="13.593719"
     style="fill:#2c9984"
     width="3.6875055"
     height="12.78122"
     id="rect11" /><rect
     x="20.499954"
     y="17.15625"
     style="fill:#f9b54c"
     width="3.6875055"
     height="9.2187634"
     id="rect13" /><rect
     x="15.843719"
     y="20.687454"
     style="fill:#54c0eb"
     width="3.6875055"
     height="5.6874895"
     id="rect15" /><rect
     x="11.187485"
     y="24.249985"
     style="fill:#4cdbc4"
     width="3.6875055"
     height="2.1250327"
     id="rect17" /><g
     id="g19"
     transform="translate(0,-464.12299)" /><g
     id="g21"
     transform="translate(0,-464.12299)" /><g
     id="g23"
     transform="translate(0,-464.12299)" /><g
     id="g25"
     transform="translate(0,-464.12299)" /><g
     id="g27"
     transform="translate(0,-464.12299)" /><g
     id="g29"
     transform="translate(0,-464.12299)" /><g
     id="g31"
     transform="translate(0,-464.12299)" /><g
     id="g33"
     transform="translate(0,-464.12299)" /><g
     id="g35"
     transform="translate(0,-464.12299)" /><g
     id="g37"
     transform="translate(0,-464.12299)" /><g
     id="g39"
     transform="translate(0,-464.12299)" /><g
     id="g41"
     transform="translate(0,-464.12299)" /><g
     id="g43"
     transform="translate(0,-464.12299)" /><g
     id="g45"
     transform="translate(0,-464.12299)" /><g
     id="g47"
     transform="translate(0,-464.12299)" /></svg>