<?xml version="1.0" encoding="utf-8"?>
<!-- Generator: Adobe Illustrator 16.0.0, SVG Export Plug-In . SVG Version: 6.00 Build 0)  -->
<!DOCTYPE svg PUBLIC "-//W3C//DTD SVG 1.1//EN" "http://www.w3.org/Graphics/SVG/1.1/DTD/svg11.dtd">
<svg version="1.1" id="Capa_1" xmlns="http://www.w3.org/2000/svg" xmlns:xlink="http://www.w3.org/1999/xlink" x="0px" y="0px"
	 width="95.013px" height="16.282px" viewBox="2.35 40.632 95.013 16.282" enable-background="new 2.35 40.632 95.013 16.282"
	 xml:space="preserve">
<g>
	<g>
		<g>
			<path fill="#FFFFFF" d="M2.35,50.754c0-0.151,0.09-0.317,0.256-0.377c0,0,0.09-0.045,0.09-0.166V45.33
				c0-0.136-0.09-0.166-0.09-0.166c-0.151-0.06-0.256-0.226-0.256-0.376c0-0.256,0.211-0.422,0.452-0.422
				c0.452,0,0.708,0.392,0.738,0.859c0,0.015,0,0.075,0,0.09c0.452-0.678,1.145-0.949,1.853-0.949c0.813,0,1.748,0.256,2.185,1.145
				c0.452-0.769,1.28-1.145,2.139-1.145c1.235,0,2.471,0.798,2.471,2.501v3.344c0,0.136,0.09,0.166,0.09,0.166
				c0.15,0.061,0.256,0.226,0.256,0.377c0,0.256-0.211,0.421-0.452,0.421c-0.482,0-0.738-0.421-0.738-0.919v-3.404
				c0-1.16-0.904-1.657-1.657-1.657c-1.115,0-1.823,0.633-1.823,1.763v3.781c0,0.227-0.181,0.422-0.422,0.422
				c-0.226,0-0.422-0.195-0.422-0.422v-3.887c0-1.25-0.904-1.657-1.657-1.657c-1.085,0-1.823,0.708-1.823,1.792v3.254
				c0,0.497-0.256,0.919-0.738,0.919C2.561,51.175,2.35,50.994,2.35,50.754z"/>
			<path fill="#FFFFFF" d="M18.469,50.558c-0.03-0.105-0.03-0.256-0.03-0.392c-0.362,0.663-1.326,1.07-2.094,1.07
				c-1.295,0-2.5-0.753-2.5-2.169c0-1.702,1.386-2.471,2.982-2.471c0.558,0,1.19,0.166,1.612,0.437c0-0.075,0-0.241,0-0.361
				c0-0.302-0.045-0.663-0.076-0.769c-0.211-0.572-0.949-0.753-1.717-0.753c-0.572,0-0.979,0.091-1.506,0.241
				c-0.045,0.015-0.136,0.03-0.181,0.03c-0.241,0-0.407-0.166-0.407-0.407c0-0.166,0.12-0.332,0.286-0.392
				c0.482-0.181,1.13-0.302,1.748-0.302c1.084,0,2.169,0.302,2.561,1.281c0.121,0.301,0.135,0.678,0.135,1.055v3.57
				c0,0.135,0.091,0.166,0.091,0.166c0.15,0.061,0.256,0.226,0.256,0.376c0,0.257-0.211,0.482-0.452,0.482
				C18.801,51.235,18.56,50.904,18.469,50.558z M18.439,47.831c-0.588-0.332-1.07-0.407-1.657-0.407
				c-1.055,0-2.109,0.467-2.109,1.627c0,0.934,0.859,1.356,1.688,1.356c0.964,0,2.064-0.633,2.064-1.702v-0.874H18.439z
				 M15.833,43.266c-0.045,0.03-0.09,0.045-0.15,0.045c-0.151,0-0.271-0.15-0.271-0.301c0.015-0.105,0.061-0.181,0.136-0.241
				l1.521-1.266c0.075-0.06,0.166-0.09,0.256-0.09c0.331,0,0.572,0.301,0.572,0.618c0,0.166-0.075,0.346-0.256,0.422L15.833,43.266z
				"/>
			<path fill="#FFFFFF" d="M23.079,51.235c-0.647,0-1.401-0.257-1.943-0.618c-0.135-0.09-0.181-0.226-0.181-0.346
				c0-0.301,0.347-0.542,0.723-0.286c0.376,0.271,0.904,0.422,1.461,0.422c0.813,0,1.552-0.392,1.552-0.934
				c0-0.663-0.829-0.949-1.567-1.25c-0.859-0.346-2.185-0.904-2.185-2.079c0-1.055,1.085-1.838,2.305-1.838
				c0.708,0,1.371,0.256,1.853,0.633c0.12,0.105,0.166,0.241,0.166,0.346c0,0.301-0.376,0.542-0.693,0.301
				c-0.362-0.286-0.859-0.452-1.326-0.452c-0.784,0-1.461,0.452-1.461,1.009c0,0.633,0.934,0.979,1.552,1.235
				c0.964,0.392,2.214,0.994,2.214,2.094C25.55,50.768,24.104,51.235,23.079,51.235z"/>
			<path fill="#FFFFFF" d="M47.997,50.256V49.91c-0.482,0.829-1.417,1.25-2.305,1.25h-0.121c-1.732,0-2.998-1.627-2.998-3.48
				c0-1.883,1.311-3.33,3.118-3.33c0.874,0,1.913,0.422,2.305,1.22v-3.073c0-0.497,0.256-0.919,0.738-0.919
				c0.241,0,0.452,0.166,0.452,0.422c0,0.151-0.09,0.316-0.256,0.376c0,0-0.09,0.045-0.09,0.166v7.653
				c0,0.136,0.09,0.166,0.09,0.166c0.151,0.061,0.256,0.227,0.256,0.377c0,0.256-0.211,0.422-0.452,0.422
				C48.237,51.175,47.997,50.754,47.997,50.256z M45.707,45.179c-1.401,0-2.29,1.175-2.29,2.501c0,1.295,0.874,2.651,2.29,2.651
				c1.431,0,2.29-1.341,2.29-2.651C47.997,46.354,47.063,45.179,45.707,45.179z"/>
			<path fill="#FFFFFF" d="M55.77,50.121c-0.377,0.693-1.386,1.054-1.973,1.054c-1.959,0-2.969-1.039-2.969-2.982V45.33
				c0-0.136-0.09-0.166-0.09-0.166c-0.15-0.06-0.256-0.226-0.256-0.376c0-0.256,0.211-0.422,0.452-0.422
				c0.482,0,0.738,0.422,0.738,0.919v2.893c0,1.476,0.678,2.154,2.154,2.154c1.115,0,1.959-0.723,1.959-1.808V45.27
				c0-0.497,0.256-0.919,0.738-0.919c0.24,0,0.451,0.166,0.451,0.422c0,0.151-0.09,0.316-0.256,0.376c0,0-0.09,0.045-0.09,0.166
				v4.866c0,0.136,0.09,0.166,0.09,0.166c0.15,0.06,0.256,0.226,0.256,0.376c0,0.256-0.211,0.422-0.451,0.422
				C55.936,51.175,55.74,50.617,55.77,50.121z"/>
			<path fill="#FFFFFF" d="M58.331,47.771c0-1.928,1.566-3.48,3.495-3.48c0.753,0,1.506,0.241,2.109,0.708
				c0.527,0.407-0.031,1.069-0.527,0.678c-0.468-0.361-1.025-0.542-1.582-0.542c-1.461,0-2.667,1.145-2.667,2.636
				c0,1.431,1.221,2.606,2.667,2.606c0.557,0,1.114-0.166,1.582-0.557c0.467-0.377,1.039,0.271,0.527,0.678
				c-0.588,0.468-1.356,0.724-2.109,0.724C59.897,51.235,58.331,49.684,58.331,47.771z"/>
			<path fill="#FFFFFF" d="M70.036,50.558c-0.03-0.105-0.03-0.256-0.03-0.392c-0.361,0.663-1.326,1.07-2.094,1.07
				c-1.296,0-2.501-0.753-2.501-2.169c0-1.702,1.386-2.471,2.983-2.471c0.557,0,1.189,0.166,1.611,0.437c0-0.075,0-0.241,0-0.361
				c0-0.302-0.045-0.663-0.075-0.769c-0.211-0.572-0.949-0.753-1.718-0.753c-0.572,0-0.979,0.091-1.506,0.241
				c-0.045,0.015-0.136,0.03-0.182,0.03c-0.24,0-0.406-0.166-0.406-0.407c0-0.166,0.121-0.332,0.287-0.392
				c0.481-0.181,1.129-0.302,1.746-0.302c1.086,0,2.17,0.302,2.562,1.281c0.12,0.301,0.136,0.678,0.136,1.055v3.57
				c0,0.135,0.09,0.166,0.09,0.166c0.151,0.061,0.257,0.226,0.257,0.376c0,0.257-0.211,0.482-0.452,0.482
				C70.367,51.235,70.127,50.904,70.036,50.558z M70.006,47.831c-0.588-0.332-1.069-0.407-1.656-0.407
				c-1.055,0-2.109,0.467-2.109,1.627c0,0.934,0.858,1.356,1.688,1.356c0.963,0,2.063-0.633,2.063-1.702v-0.874H70.006z"/>
			<path fill="#FFFFFF" d="M72.371,47.771c0-1.928,1.566-3.48,3.495-3.48c0.753,0,1.507,0.241,2.108,0.708
				c0.527,0.407-0.029,1.069-0.526,0.678c-0.468-0.361-1.024-0.542-1.582-0.542c-1.462,0-2.667,1.145-2.667,2.636
				c0,1.431,1.221,2.606,2.667,2.606c0.558,0,1.114-0.166,1.582-0.557c0.467-0.377,1.039,0.271,0.526,0.678
				c-0.587,0.468-1.355,0.724-2.108,0.724C73.938,51.235,72.371,49.684,72.371,47.771z"/>
			<path fill="#FFFFFF" d="M80.175,50.256V45.33c0-0.136-0.091-0.166-0.091-0.166c-0.15-0.06-0.256-0.226-0.256-0.376
				c0-0.256,0.211-0.422,0.452-0.422c0.481,0,0.738,0.422,0.738,0.919v4.926c0,0.136,0.091,0.166,0.091,0.166
				c0.15,0.061,0.256,0.226,0.256,0.377c0,0.256-0.211,0.421-0.452,0.421C80.431,51.175,80.175,50.754,80.175,50.256z
				 M79.858,42.181c0-0.346,0.271-0.603,0.603-0.603s0.617,0.256,0.617,0.588c0,0.346-0.271,0.618-0.617,0.618
				C80.129,42.784,79.858,42.513,79.858,42.181z"/>
			<path fill="#FFFFFF" d="M82.6,47.755c0-1.898,1.553-3.465,3.465-3.465c1.929,0,3.48,1.552,3.48,3.465
				c0,1.928-1.552,3.48-3.48,3.48C84.152,51.235,82.6,49.684,82.6,47.755z M83.429,47.755c0,1.461,1.205,2.651,2.651,2.651
				c1.461,0,2.651-1.175,2.651-2.651c0-1.446-1.19-2.621-2.651-2.621C84.634,45.134,83.429,46.309,83.429,47.755z M85.207,43.266
				c-0.046,0.03-0.091,0.045-0.151,0.045c-0.15,0-0.271-0.15-0.271-0.301c0.015-0.105,0.06-0.181,0.135-0.241l1.521-1.266
				c0.076-0.06,0.166-0.09,0.256-0.09c0.332,0,0.573,0.301,0.573,0.618c0,0.166-0.075,0.346-0.257,0.422L85.207,43.266z"/>
			<path fill="#FFFFFF" d="M96.174,50.256v-2.907c0-1.25-0.558-2.154-2.064-2.154c-1.129,0-1.988,0.798-1.988,1.958v3.103
				c0,0.498-0.256,0.919-0.738,0.919c-0.24,0-0.451-0.165-0.451-0.421c0-0.151,0.09-0.317,0.256-0.377c0,0,0.09-0.045,0.09-0.166
				V45.36c0-0.135-0.09-0.15-0.09-0.15c-0.15-0.061-0.256-0.241-0.256-0.392c0-0.256,0.195-0.452,0.436-0.452
				c0.453,0,0.754,0.316,0.754,0.859v0.241c0.061-0.121,0.723-1.084,1.988-1.084c1.929,0,2.908,1.145,2.908,3.088v2.757
				c0,0.135,0.09,0.166,0.09,0.166c0.15,0.061,0.256,0.226,0.256,0.376c0,0.257-0.211,0.422-0.451,0.422
				C96.414,51.175,96.174,50.754,96.174,50.256z"/>
		</g>
	</g>
	
		<linearGradient id="SVGID_1_" gradientUnits="userSpaceOnUse" x1="1891.9678" y1="-2289.0542" x2="1955.9332" y2="-2189.7974" gradientTransform="matrix(0.1506 0 0 -0.1506 -255.5753 -290.6191)">
		<stop  offset="0.2316" style="stop-color:#1B9DD9"/>
		<stop  offset="0.6662" style="stop-color:#009875"/>
		<stop  offset="1" style="stop-color:#FED54A"/>
	</linearGradient>
	<path fill="url(#SVGID_1_)" d="M36.969,40.645c0,0-7.005,1.04-7.638,1.16c-2.922,0.587-2.41,3.314-2.41,3.314l2.034,10.319
		c-0.256-2.004,2.5-2.14,2.5-2.14l7.849-1.189c0,0,1.928-0.15,1.416-2.14c-0.512-1.973-1.597-7.668-1.597-7.668
		S39.033,40.464,36.969,40.645z"/>
	<g>
		<path fill="#FFFFFF" d="M39.952,46.445c-0.06,0.452-2.305,2.471-4.173,3.615c-0.874,0.542-1.898,0.708-2.742,0.603
			c-0.708-0.091-1.22-0.377-1.552-0.844c-0.332-0.467-0.437-1.07-0.347-1.823c0.166-1.25,0.753-2.396,1.748-3.405
			c0.995-1.024,2.004-1.461,2.998-1.326c0.332,0.045,0.587,0.181,0.769,0.437c0.181,0.241,0.256,0.512,0.21,0.813
			c-0.09,0.678-0.512,1.28-1.25,1.808s-1.718,1.024-2.893,1.461c-0.241,0.09-0.376,0.226-0.407,0.421
			c-0.045,0.362,0.015,0.663,0.196,0.919c0.181,0.241,0.482,0.407,0.889,0.452c2.139,0.271,4.761-2.35,5.891-3.254
			c0.166-0.121,0.542-0.527,0.542-0.527L39.952,46.445z M32.57,46.942c2.004-0.859,3.059-1.612,3.149-2.29
			c0.03-0.256-0.061-0.407-0.301-0.437c-0.407-0.061-0.904,0.181-1.477,0.708C33.354,45.436,32.901,46.113,32.57,46.942z"/>
	</g>
	<path fill="#FFFFFF" d="M31.38,47.168c0,0-0.286,0.633-0.256,1.13c0,0-2.426,0.949-3.194,2.019c0.03,0.03-0.136-0.708-0.136-0.708
		c0.061-0.121,0.467-0.452,0.618-0.618C29.497,47.981,31.38,47.168,31.38,47.168z"/>
	<path fill="#FFFFFF" d="M30.039,54.881c-0.075,0-0.135-0.061-0.15-0.135c-0.015-0.092,0.045-0.166,0.135-0.182l10.5-1.611
		c0.09-0.016,0.166,0.045,0.181,0.135c0.015,0.091-0.045,0.166-0.136,0.182l-10.515,1.611
		C30.054,54.865,30.039,54.881,30.039,54.881z"/>
	<path fill="#FFFFFF" d="M29.813,55.891c-0.075,0-0.135-0.061-0.15-0.136c-0.015-0.091,0.045-0.166,0.136-0.181l10.515-1.612
		c0.09-0.015,0.166,0.046,0.181,0.136s-0.045,0.166-0.136,0.181l-10.515,1.612C29.828,55.891,29.828,55.891,29.813,55.891z"/>
	<path fill="#FFFFFF" d="M29.693,56.914c-0.076,0-0.136-0.06-0.151-0.135c-0.015-0.09,0.045-0.166,0.136-0.182l10.515-1.611
		c0.09-0.016,0.166,0.045,0.181,0.136s-0.045,0.165-0.136,0.181l-10.515,1.611C29.723,56.914,29.708,56.914,29.693,56.914z"/>
</g>
</svg>
