<?xml version="1.0" encoding="utf-8"?>
<!-- Generator: Adobe Illustrator 16.0.0, SVG Export Plug-In . SVG Version: 6.00 Build 0)  -->
<!DOCTYPE svg PUBLIC "-//W3C//DTD SVG 1.1//EN" "http://www.w3.org/Graphics/SVG/1.1/DTD/svg11.dtd">
<svg version="1.1" id="Layer_x5F_1_x5F_1" xmlns="http://www.w3.org/2000/svg" xmlns:xlink="http://www.w3.org/1999/xlink" x="0px"
	 y="0px" width="170px" height="26.054px" viewBox="-50.453 -7.66 170 26.054" enable-background="new -50.453 -7.66 170 26.054"
	 xml:space="preserve">
<path fill="#FFFFFF" d="M-38.124,8.383c0,0-0.773-2.469-1.282-4.737c-0.241-1.078-0.945-4.158-0.945-4.158s-0.676,2.778-1.122,4.532
	c-0.435,1.693-0.74,2.812-1.248,4.363H-38.124z M-37.649-5.681l7.398,23.562h-5.066l-1.655-5.577h-6.895l-1.653,5.577h-4.933
	l7.701-23.562H-37.649z"/>
<path fill="#FFFFFF" d="M-22.237,5.369h2.466c1.926,0,2.501-0.234,3.141-1.209c0.407-0.647,0.576-1.319,0.576-2.439
	c0-2.195-1.183-3.519-3.176-3.519h-3.012v7.167H-22.237z M-20.783-5.618c3.993,0,5.203,0.411,6.52,1.151
	c2.2,1.218,3.378,3.378,3.378,6.087c0,3.113-1.484,5.614-4.05,6.831c-1.082,0.506-2.096,0.777-4.697,0.777h-2.606v8.652h-4.729
	V-5.618H-20.783z"/>
<path fill="#FFFFFF" d="M44.01-5.618V9.839c0,1.452,0.129,2.3,0.397,2.807c0.543,1.048,1.658,1.622,3.215,1.622
	c2.06,0,3.379-1.015,3.58-2.745c0.068-0.496,0.068-0.843,0.068-2.089V-5.618h4.798v15.827c0,2.232-0.036,2.672-0.372,3.687
	c-0.61,1.854-2.905,4.431-7.978,4.431c-3.58,0-6.216-1.084-7.534-3.144c-0.773-1.218-1.015-2.167-1.015-4.431v-16.37H44.01z"/>
<path fill="#FFFFFF" d="M74.216-0.58c-2.124-1.282-3.715-1.791-5.473-1.791c-1.925,0-3.277,1.118-3.277,2.709
	c0,1.216,0.642,1.819,2.603,2.365l2.84,0.777c3.852,1.046,5.947,3.519,5.947,6.998c0,4.768-3.855,7.916-9.698,7.916
	c-2.668,0-5.641-0.778-8.006-2.129l1.756-3.687c2.198,1.144,4.087,1.889,6.453,1.889c2.708,0,4.127-1.11,4.127-3.209
	c0-1.52-0.98-2.466-3.08-3.04l-2.598-0.71c-2.333-0.648-3.785-1.559-4.627-2.979c-0.646-1.046-0.984-2.261-0.984-3.58
	c0-4.296,3.449-7.271,8.42-7.271c2.869,0,5.773,0.875,7.833,2.367L74.216-0.58z"/>
<path fill="#378CC8" d="M13.009,2.922c-1.174,0-2.273-0.31-3.224-0.851v15.81h6.454V2.071h-0.009
	C15.277,2.612,14.18,2.922,13.009,2.922z"/>
<circle fill="#378CC8" cx="13.009" cy="-3.642" r="4.018"/>
<polygon fill="#FFFFFF" points="6.472,-5.618 6.472,-1.696 0.734,-1.696 0.734,17.881 -4.064,17.881 -4.064,-1.696 -9.812,-1.696 
	-9.812,-5.618 "/>
<polygon fill="#FFFFFF" points="35.834,-5.618 35.831,-1.696 30.093,-1.696 30.093,17.881 25.296,17.881 25.296,-1.696 
	19.554,-1.696 19.554,-5.618 "/>
<rect x="77.919" y="14.075" fill="#378CC8" width="3.203" height="3.735"/>
<path fill="#378CC8" d="M89.688,17.751c0.252-0.04,0.521-0.101,0.821-0.18c0.233-0.058,0.459-0.135,0.69-0.23l0.596-0.246v-2.486
	h-0.372c-0.104,0.102-0.224,0.209-0.368,0.33c-0.146,0.114-0.313,0.23-0.504,0.341c-0.197,0.118-0.442,0.206-0.717,0.283
	c-0.283,0.082-0.605,0.115-0.975,0.115c-0.727,0-1.307-0.235-1.745-0.716c-0.438-0.474-0.658-1.199-0.658-2.177
	c0-0.904,0.207-1.629,0.62-2.167c0.408-0.536,0.982-0.813,1.735-0.813c0.33,0,0.63,0.047,0.897,0.121
	c0.269,0.072,0.502,0.163,0.718,0.264c0.201,0.106,0.386,0.226,0.556,0.342c0.173,0.125,0.323,0.242,0.44,0.343h0.372V8.415
	c-0.543-0.258-1.075-0.449-1.61-0.565c-0.533-0.117-1.057-0.172-1.58-0.172c-0.711,0-1.386,0.1-2.038,0.291
	c-0.652,0.194-1.206,0.479-1.693,0.879c-0.503,0.417-0.892,0.953-1.186,1.593c-0.288,0.653-0.432,1.427-0.432,2.345
	c0,0.859,0.134,1.601,0.401,2.234c0.266,0.63,0.642,1.148,1.127,1.566c0.487,0.413,1.052,0.726,1.72,0.928
	c0.658,0.197,1.384,0.297,2.183,0.297C89.1,17.811,89.436,17.797,89.688,17.751z"/>
<path fill="#378CC8" d="M99.666,14.193c-0.091,0.341-0.224,0.634-0.398,0.875c-0.151,0.196-0.343,0.357-0.582,0.459
	c-0.25,0.1-0.497,0.15-0.725,0.15c-0.296,0-0.563-0.051-0.796-0.15c-0.228-0.102-0.435-0.268-0.584-0.484
	c-0.158-0.216-0.283-0.504-0.374-0.867c-0.103-0.357-0.143-0.826-0.143-1.405c0-0.586,0.05-1.069,0.152-1.454
	c0.101-0.382,0.233-0.694,0.407-0.918c0.179-0.226,0.362-0.381,0.582-0.469c0.221-0.078,0.461-0.125,0.725-0.125
	c0.285,0,0.535,0.052,0.755,0.148c0.215,0.095,0.415,0.256,0.592,0.487c0.165,0.232,0.288,0.535,0.379,0.908
	c0.097,0.384,0.145,0.851,0.145,1.422C99.801,13.376,99.753,13.852,99.666,14.193z M101.67,9.031
	c-0.887-0.9-2.135-1.359-3.733-1.359c-1.603,0-2.854,0.447-3.739,1.35c-0.888,0.899-1.333,2.144-1.333,3.73
	c0,1.566,0.445,2.811,1.333,3.709c0.886,0.901,2.137,1.35,3.739,1.35c1.61,0,2.859-0.448,3.743-1.35
	c0.88-0.898,1.324-2.143,1.324-3.709C103.004,11.17,102.554,9.926,101.67,9.031z"/>
<path fill="#378CC8" d="M119.547,17.811v-6.419c0-0.699-0.072-1.278-0.207-1.708c-0.133-0.438-0.341-0.822-0.604-1.137
	c-0.262-0.284-0.567-0.503-0.928-0.651c-0.36-0.151-0.768-0.224-1.221-0.224c-0.539,0-1.071,0.149-1.589,0.441
	c-0.517,0.299-1.077,0.717-1.66,1.265c-0.24-0.563-0.591-0.989-1.037-1.274c-0.455-0.282-0.979-0.432-1.581-0.432
	c-0.558,0-1.059,0.123-1.5,0.356c-0.442,0.239-0.908,0.576-1.407,1.003V7.672h-3.201v10.139h3.201V10.92
	c0.218-0.148,0.433-0.288,0.668-0.403c0.22-0.118,0.458-0.177,0.699-0.177c0.308,0,0.55,0.049,0.723,0.146
	c0.178,0.096,0.309,0.248,0.396,0.454c0.081,0.217,0.133,0.481,0.151,0.813c0.014,0.336,0.03,0.735,0.03,1.211v4.854h3.203V10.92
	c0.25-0.178,0.491-0.328,0.711-0.433c0.215-0.101,0.431-0.147,0.66-0.147c0.316,0,0.56,0.047,0.733,0.144
	c0.179,0.095,0.308,0.245,0.391,0.456c0.084,0.212,0.129,0.479,0.148,0.798c0.015,0.337,0.026,0.74,0.026,1.223v4.851H119.547z"/>
</svg>
