<?xml version="1.0" encoding="iso-8859-1"?>
<!-- Generator: Adobe Illustrator 19.0.0, SVG Export Plug-In . SVG Version: 6.00 Build 0)  -->
<svg version="1.1" id="Layer_1" xmlns="http://www.w3.org/2000/svg" xmlns:xlink="http://www.w3.org/1999/xlink" x="0px" y="0px"
	 viewBox="0 0 512.016 512.016" style="enable-background:new 0 0 512.016 512.016;" xml:space="preserve">
<g>
	<path style="fill:#97DBFF;" d="M486.632,418.752l-73.376-73.376c-12.496-12.496-32.768-12.496-45.264,0L345.384,368
		c-12.496,12.496-12.496,32.752,0,45.248l73.376,73.376c12.496,12.496,32.752,12.496,45.248,0L486.632,464
		C499.128,451.504,499.128,431.248,486.632,418.752z"/>
</g>
<g>
	<path style="fill:#4E5F80;" d="M192.008,64c-34.08-0.032-66.416,13.376-90.512,37.488C77.368,125.584,63.976,157.936,64.008,192
		c0,8.832,7.168,16,16,16s16-7.168,16-16l0,0c0.032-25.744,9.92-49.648,28.112-67.872c18.24-18.192,42.16-28.096,67.888-28.128
		c8.832,0,16-7.168,16-16S200.84,64,192.008,64z"/>
	<path style="fill:#4E5F80;" d="M497.944,407.424L497.944,407.424l-73.376-73.376c-9.328-9.344-21.712-14.08-33.936-14.064
		c-12.224-0.016-24.608,4.72-33.936,14.064l-18.176-18.176c30.224-35.664,45.504-79.792,45.488-123.872
		c0.016-49.088-18.768-98.32-56.24-135.76C290.328,18.768,241.096-0.016,192.008,0c-49.088-0.016-98.32,18.768-135.76,56.24
		C18.776,93.68-0.008,142.912,0.008,192c-0.016,49.088,18.784,98.32,56.24,135.76c37.44,37.456,86.672,56.256,135.76,56.24
		c44.08,0.016,88.208-15.264,123.888-45.488l18.176,18.176c-9.376,9.36-14.08,21.792-14.064,34
		c-0.016,12.24,4.752,24.592,14.064,33.888l73.376,73.376c9.328,9.344,21.712,14.08,33.936,14.064
		c12.224,0.016,24.608-4.72,33.936-14.048l22.624-22.624c9.344-9.328,14.08-21.712,14.064-33.952
		C512.024,429.136,507.288,416.752,497.944,407.424z M305.144,305.136c-31.28,31.28-72.128,46.848-113.136,46.864
		c-41.008-0.016-81.856-15.584-113.136-46.864C47.608,273.856,32.024,232.992,32.008,192c0.016-41.008,15.584-81.856,46.864-113.136
		S151.016,32.016,192.008,32c41.008,0.016,81.856,15.584,113.136,46.864S351.992,150.992,352.008,192
		C351.992,232.992,336.424,273.856,305.144,305.136z M480.008,441.376c-0.016,4.144-1.536,8.144-4.688,11.312l-22.624,22.624
		c-3.168,3.152-7.168,4.672-11.312,4.688c-4.144-0.016-8.144-1.536-11.312-4.688l-73.376-73.376
		c-3.168-3.168-4.672-7.152-4.688-11.248c0.016-4.208,1.536-8.208,4.688-11.376l22.624-22.624c3.168-3.152,7.168-4.672,11.312-4.688
		c4.144,0.016,8.144,1.536,11.312,4.688l73.376,73.376l11.312-11.312l-11.312,11.312
		C478.472,433.216,479.992,437.216,480.008,441.376z"/>
</g>
<g>
</g>
<g>
</g>
<g>
</g>
<g>
</g>
<g>
</g>
<g>
</g>
<g>
</g>
<g>
</g>
<g>
</g>
<g>
</g>
<g>
</g>
<g>
</g>
<g>
</g>
<g>
</g>
<g>
</g>
</svg>
