<svg xmlns="http://www.w3.org/2000/svg"><defs><style id="style6">.cls-1{fill:#565656;fill-rule:evenodd}</style><style id="style6">.cls-1{fill:#565656;fill-rule:evenodd}</style></defs><symbol id="g-icon-browser_ads" viewBox="0 0 100 100"><path d="M85.88 75.06l-3.708-3.821a2.578 2.578 0 0 0 2.808-1.927 2.578 2.578 0 0 0-1.868-3.13l-8.741-2.208a2.578 2.578 0 0 0-3.131 3.131l2.208 8.739a2.578 2.578 0 0 0 5.052-.986l3.683 3.794a2.57 2.57 0 0 0 1.849.782 2.579 2.579 0 0 0 1.848-4.374zM43.058 46.614a1.105 1.105 0 0 0-1.034-.715h-.002l-1.861.003a1.107 1.107 0 0 0-1.034.719l-6.471 17.386a1.106 1.106 0 0 0 1.035 1.492h1.684c.461 0 .874-.288 1.035-.72l1.915-5.143h5.593l1.939 5.146c.163.43.574.716 1.033.716h1.694a1.106 1.106 0 0 0 .987-1.602l-6.513-17.282zm-3.323 9.236l1.369-3.68 1.387 3.68h-2.756zM57.186 45.824h-4.789c-.61 0-1.104.495-1.104 1.104v17.359c0 .61.493 1.105 1.104 1.105h4.789c5.502 0 9.977-4.384 9.977-9.772-.001-5.401-4.475-9.796-9.977-9.796zm0 15.78H55.08V49.612h2.105c3.413 0 6.189 2.693 6.189 6.008.001 3.3-2.775 5.984-6.188 5.984z"/><path d="M93.942 2.599H5.808A5.314 5.314 0 0 0 .5 7.907v83a5.315 5.315 0 0 0 5.308 5.309h88.135a5.315 5.315 0 0 0 5.308-5.309v-83a5.315 5.315 0 0 0-5.309-5.308zM83.44 10.738c2.424 0 4.397 1.973 4.397 4.397s-1.974 4.398-4.397 4.398-4.397-1.973-4.397-4.398 1.974-4.397 4.397-4.397zm-14.913 0c2.425 0 4.397 1.973 4.397 4.397s-1.973 4.398-4.397 4.398-4.398-1.973-4.398-4.398 1.974-4.397 4.398-4.397zM13.966 12.86h17.743a2.276 2.276 0 0 1 0 4.55H13.966a2.275 2.275 0 0 1 0-4.55zM90.82 87.019a.695.695 0 0 1-.693.693H9.623a.694.694 0 0 1-.692-.693V29.857h81.89v57.162z"/></symbol><symbol id="g-icon-building" viewBox="0 0 100 100"><path d="M94.966 93.873v-18.72H78.424V18.865h-6.576V8.34H53.099V0h-6.127v8.34H28.224v10.524h-6.576v56.29H5.106v18.72H0V100h100.072v-6.127h-5.106zm-23.506 0h-6.127V35.458h-5.864v58.415h-6.127V35.458h-6.194v58.415h-6.127V35.458H34.74v58.415h-6.127V29.331H71.46v64.542z"/></symbol><symbol id="g-icon-call" viewBox="0 0 99.999997 99.999997"><path d="M53.399 29.208L39.587.34 45.02 0l12 25.699-3.622 3.51zm22.415 29.209l-4.868 1.472L89.06 86.267l3.057-4.529-16.303-23.321zM56.23 67.36c-2.415 2.189-4.716 5.358-6.906 9.51-15.472-8.378-22.868-21.133-22.189-38.266 4.83.302 8.85-.094 12.057-1.188 3.207-1.095 6.396-2.963 9.566-5.604-4.076-8.981-8.906-18.982-14.49-30-2.491.528-5.51 1.81-9.058 3.848-4.604 2.717-8.358 6.095-11.264 10.133-2.906 4.037-4.868 8.434-5.887 13.189-1.019 4.755-1.302 9.717-.849 14.887.453 5.17 1.66 10.36 3.623 15.566 1.283 3.472 2.906 6.944 4.868 10.416 2.038 3.547 4.49 7.17 7.359 10.868 4.528 5.811 9.754 10.396 15.68 13.755 5.924 3.358 12.15 5.189 18.679 5.49 6.528.302 13-1.32 19.416-4.867 3.848-1.812 6.452-3.812 7.81-6l-18.679-27.51c-4.075 1.66-7.32 3.585-9.736 5.773z" fill="#010002"/></symbol><symbol id="g-icon-close" viewBox="0 0 100 100"><path d="M50.636 3.446C24.7 3.446 3.673 24.473 3.673 50.409c0 25.939 21.026 46.963 46.962 46.963 25.939 0 46.963-21.023 46.963-46.963.001-25.936-21.023-46.963-46.962-46.963zm23.365 65.479l-7.781 6.98-15.944-17.771-17.748 17.695-3.65-3.661-.002-.002-.002-.002-3.727-3.738 18.138-18.083-16.311-18.182 3.914-3.512 3.866-3.469 15.944 17.772 18.031-17.977 7.381 7.402-18.421 18.366 16.312 18.182z"/></symbol><symbol id="g-icon-computer" viewBox="0 0 99.999999 99.999999"><path d="M41.865 65.29a27.708 27.708 0 0 0 4.595 8.394H6.923A6.929 6.929 0 0 1 0 66.761v-4.268h5.881v-44.03a6.27 6.27 0 0 1 6.27-6.269h65.166a6.27 6.27 0 0 1 6.27 6.27v14.499a27.619 27.619 0 0 0-8.557-3.758v-8.454H14.438v41.742h21.893v.429a2.375 2.375 0 0 0 2.389 2.369h3.145zM98.372 79.22c2.083 1.858 2.185 5.105.204 7.066l-.286.285A4.854 4.854 0 0 1 94.84 88a4.864 4.864 0 0 1-3.636-1.634L81.177 74.665a22.457 22.457 0 0 1-12.927 4.084c-5.76 0-11.498-2.185-15.888-6.576-8.782-8.781-8.782-23.015 0-31.797A22.405 22.405 0 0 1 68.25 33.8c5.759 0 11.497 2.185 15.888 6.576 7.842 7.842 8.68 20.034 2.512 28.815L98.372 79.22zm-19.646-33.37a14.804 14.804 0 0 0-10.456-4.33c-3.778 0-7.556 1.45-10.435 4.33-5.76 5.76-5.76 15.112 0 20.871a14.723 14.723 0 0 0 10.435 4.33c3.778 0 7.556-1.45 10.436-4.33 5.78-5.759 5.78-15.112.02-20.87z"/></symbol><symbol id="g-icon-down_arrow" viewBox="0 0 100 100"><path d="M98.977 27.54a3.535 3.535 0 0 0-4.996 0L50.048 71.558 6.03 27.54a3.535 3.535 0 0 0-4.996 0 3.535 3.535 0 0 0 0 4.996l46.43 46.43A3.45 3.45 0 0 0 49.962 80c.862 0 1.81-.345 2.498-1.034l46.43-46.43a3.461 3.461 0 0 0 .087-4.996z"/></symbol><symbol id="g-icon-edit" viewBox="0 0 100 100"><path d="M49.776 70.27l6.502-6.503-8.52-8.52-6.502 6.502v3.139h5.38v5.381h3.14zm24.663-40.36q-.896-.897-1.85.056l-19.618 19.62q-.953.952-.056 1.849.897.897 1.85-.056L74.383 31.76q.953-.953.056-1.85zm4.485 33.296v10.65q0 6.67-4.737 11.407Q69.451 90 62.78 90H16.143q-6.67 0-11.406-4.737Q0 80.527 0 73.857V27.22q0-6.67 4.737-11.407 4.736-4.737 11.406-4.737H62.78q3.532 0 6.559 1.402.84.392 1.009 1.289.168.953-.505 1.625l-2.747 2.747q-.784.785-1.793.448-1.29-.336-2.523-.336H16.143q-3.7 0-6.334 2.635-2.634 2.634-2.634 6.334v46.637q0 3.7 2.634 6.334 2.635 2.634 6.334 2.634H62.78q3.7 0 6.334-2.634 2.635-2.635 2.635-6.334v-7.063q0-.729.504-1.233l3.588-3.588q.84-.84 1.962-.392 1.12.448 1.12 1.625zM73.543 21.84l16.143 16.143L52.018 75.65H35.874V59.507zm24.887 7.399l-5.156 5.157L77.13 18.25l5.157-5.157q1.57-1.57 3.812-1.57t3.811 1.57l8.52 8.52q1.57 1.57 1.57 3.812t-1.57 3.812z"/></symbol><symbol id="g-icon-lens" viewBox="0 0 100 100" preserveAspectRatio="xMidYMid"><path d="M69.235 42.313c0 14.84-12.082 26.922-26.922 26.922-14.848 0-26.922-12.082-26.922-26.922s12.074-26.922 26.922-26.922c14.84 0 26.922 12.082 26.922 26.922zm30.765 50a7.771 7.771 0 0 0-2.223-5.412L77.163 66.287c4.87-7.032 7.454-15.442 7.454-23.974 0-23.38-18.933-42.304-42.304-42.304C18.933.009 0 18.933 0 42.313c0 23.38 18.933 42.304 42.313 42.304 8.532 0 16.942-2.585 23.974-7.454l20.614 20.553C88.28 99.164 90.262 100 92.304 100c4.214 0 7.696-3.482 7.696-7.687z" class="cls-1" id="path8" fill-rule="evenodd"/></symbol><symbol id="g-icon-locked" viewBox="0 0 486.733 486.733"><path d="M403.88 196.563h-9.484v-44.388c0-82.099-65.151-150.681-146.582-152.145-2.225-.04-6.671-.04-8.895 0C157.486 1.494 92.336 70.076 92.336 152.175v44.388h-9.485c-14.616 0-26.538 15.082-26.538 33.709v222.632c0 18.606 11.922 33.829 26.539 33.829H403.88c14.616 0 26.539-15.223 26.539-33.829V230.272c0-18.626-11.922-33.709-26.539-33.709zM273.442 341.362v67.271c0 7.703-6.449 14.222-14.158 14.222H227.45c-7.71 0-14.159-6.519-14.159-14.222v-67.271c-7.477-7.36-11.83-17.537-11.83-28.795 0-21.334 16.491-39.666 37.459-40.513 2.222-.09 6.673-.09 8.895 0 20.968.847 37.459 19.179 37.459 40.513-.002 11.258-4.355 21.435-11.832 28.795zm58.444-144.799H154.847v-44.388c0-48.905 39.744-89.342 88.519-89.342 48.775 0 88.521 40.437 88.521 89.342v44.388z"/></symbol><symbol id="g-icon-logout" viewBox="0 0 100 100"><path d="M70.8 75.797A3.45 3.45 0 0 0 73.3 76.83a3.45 3.45 0 0 0 2.498-1.033L99.052 52.54c.173-.172.345-.344.43-.517 0 0 .087-.086.087-.172.086-.172.172-.345.258-.43 0-.087 0-.173.087-.173.086-.172.086-.258.172-.43.086-.259.086-.431.086-.69 0-.258 0-.43-.086-.689a.658.658 0 0 0-.172-.43c0-.087 0-.173-.087-.173l-.258-.516s0-.087-.086-.087c-.086-.172-.258-.344-.43-.516L75.796 24.462a3.535 3.535 0 0 0-4.996 0 3.535 3.535 0 0 0 0 4.996l17.226 17.226h-61.24a3.493 3.493 0 0 0-3.531 3.531 3.493 3.493 0 0 0 3.531 3.532h61.24L70.801 70.973c-1.378 1.206-1.378 3.446 0 4.824z"/><path d="M3.531 100h46.512a3.493 3.493 0 0 0 3.531-3.531V61.757a3.493 3.493 0 0 0-3.531-3.531 3.493 3.493 0 0 0-3.531 3.531v31.18H7.062V7.063h39.45v31.18a3.493 3.493 0 0 0 3.53 3.531 3.493 3.493 0 0 0 3.532-3.53V3.531A3.493 3.493 0 0 0 50.043 0H3.53A3.493 3.493 0 0 0 0 3.532v92.937C.086 98.449 1.637 100 3.531 100z"/></symbol><symbol id="g-icon-megaphone" viewBox="0 0 100 100"><path d="M13.044 65.913v19.565a6.522 6.522 0 1 0 13.043 0V65.913H13.044zM9.783 26.783C4.388 26.783 0 31.17 0 36.565V49.61c0 5.394 4.388 9.782 9.783 9.782h16.304V26.783H9.783zm3.26 26.087h-3.26a3.265 3.265 0 0 1-3.261-3.261V36.565a3.265 3.265 0 0 1 3.26-3.26h3.262V52.87zM32.609 59.39l41.304 14.558V12.223L32.61 26.783zM86.956 28.956V12.651c0-2.232-2.198-3.815-4.335-3.08l-2.186.666v65.696l2.186.666c2.109.735 4.335-.826 4.335-3.08V55.044C94.15 55.043 100 49.193 100 42s-5.85-13.044-13.044-13.044zm0 19.554V35.488c3.562-.064 6.522 2.916 6.522 6.512 0 3.596-2.961 6.511-6.522 6.51z"/></symbol><symbol id="g-icon-membership" viewBox="0 0 100 100"><path d="M87.442 14.951H12.558C6.736 14.951 2 19.687 2 25.508V71.52c0 5.822 4.736 10.558 10.558 10.558h74.884C93.265 82.077 98 77.342 98 71.52V25.508c0-5.821-4.736-10.557-10.558-10.557zM7.85 25.508a4.713 4.713 0 0 1 4.708-4.708h74.884a4.713 4.713 0 0 1 4.708 4.708v4.185H7.85v-4.185zm84.3 46.012a4.714 4.714 0 0 1-4.708 4.709H12.558A4.714 4.714 0 0 1 7.85 71.52V48.449h57.286a2.925 2.925 0 0 0 0-5.849H7.85v-7.058h84.3v6.054l-.074 9.261.074 20.663z"/><path d="M41.025 60.95H19.604a2.924 2.924 0 0 0 0 5.849h21.422a2.925 2.925 0 1 0-.001-5.849zM58.665 60.95h-6.726a2.925 2.925 0 1 0 0 5.849h6.726a2.926 2.926 0 1 0 0-5.849z"/></symbol><symbol id="g-icon-people" viewBox="0 0 100 100"><path d="M60.066 20.736c4.526 2.837 7.699 7.639 8.277 13.212a14.256 14.256 0 0 0 6.066 1.36c7.928 0 14.354-6.427 14.354-14.354 0-7.928-6.427-14.355-14.354-14.355-7.852.002-14.222 6.314-14.343 14.137zm-9.404 29.393c7.929 0 14.355-6.428 14.355-14.355 0-7.928-6.427-14.355-14.355-14.355-7.928 0-14.357 6.429-14.357 14.355 0 7.927 6.429 14.355 14.357 14.355zm6.088.978H44.57c-10.135 0-18.38 8.245-18.38 18.379v14.896l.037.234 1.027.322c9.672 3.021 18.075 4.029 24.99 4.029 13.511 0 21.339-3.853 21.822-4.096l.96-.487h.103V69.486c.002-10.133-8.243-18.379-18.379-18.379zm23.751-14.821H68.415a17.684 17.684 0 0 1-5.461 12.322c9.008 2.68 15.601 11.034 15.601 20.901v4.592c11.934-.439 18.812-3.82 19.265-4.05l.957-.484h.103v-14.9c-.001-10.136-8.246-18.381-18.379-18.381zm-55.028-.975c2.808 0 5.42-.821 7.635-2.217a17.764 17.764 0 0 1 6.678-11.33c.014-.27.041-.535.041-.806 0-7.93-6.427-14.356-14.353-14.356-7.93 0-14.355 6.426-14.355 14.356-.001 7.924 6.424 14.353 14.354 14.353zm12.892 13.297a17.697 17.697 0 0 1-5.457-12.253c-.448-.034-.891-.069-1.349-.069H19.38C9.245 36.286 1 44.531 1 54.667v14.898l.038.229 1.026.325c7.759 2.421 14.684 3.537 20.699 3.889V69.51c.002-9.867 6.591-18.219 15.602-20.902z"/></symbol><symbol id="g-icon-three_nuts" viewBox="0 0 99.999998 100" preserveAspectRatio="xMidYMid"><path d="M46.668 49.973c0 8.004-5.988 14.538-13.335 14.538C25.992 64.511 20 57.977 20 49.973c0-8.005 5.993-14.539 13.334-14.539 7.347 0 13.335 6.534 13.335 14.539zm39.998 29.076c0 3.972-2.966 7.267-6.665 7.267-3.648 0-6.664-3.24-6.664-7.267 0-3.977 3.016-7.272 6.664-7.272 3.648 0 6.665 3.295 6.665 7.272zm0-58.153c0 3.977-2.966 7.272-6.665 7.272-3.648 0-6.664-3.24-6.664-7.272 0-3.972 3.016-7.267 6.664-7.267 3.648 0 6.665 3.295 6.665 7.267zm-20 23.91c0-.794-.52-1.532-1.247-1.703L57.5 41.797c-.47-1.592-1.091-3.123-1.768-4.66 1.455-2.215 3.016-4.26 4.527-6.474.212-.341.369-.683.369-1.08 0-1.586-6.15-7.717-7.504-9.084-.313-.287-.677-.451-1.091-.451-.364 0-.733.11-1.04.396l-6.15 5.052c-1.248-.678-2.552-1.306-3.906-1.757L39.74 15.05c-.106-.8-.833-1.422-1.56-1.422h-9.687c-.733 0-1.354.568-1.567 1.36-.677 2.783-.934 5.907-1.197 8.75-1.405.506-2.708 1.08-4.007 1.818l-5.993-5.113c-.313-.232-.677-.396-1.09-.396-1.512 0-7.348 6.87-8.389 8.4a1.856 1.856 0 0 0-.363 1.135c0 .397.156.8.363 1.135 1.668 2.16 3.229 4.265 4.69 6.534-.678 1.422-1.254 2.837-1.668 4.313l-8.075 1.367C.52 43.042 0 43.896 0 44.634V55.14c0 .793.52 1.531 1.253 1.647l7.913 1.36c.47 1.593 1.096 3.124 1.824 4.662-1.511 2.208-3.072 4.313-4.583 6.473-.207.335-.364.677-.364 1.074 0 1.647 6.144 7.723 7.498 9.09.314.28.678.452 1.097.452.364 0 .778-.11 1.041-.397l6.144-5.052c1.253.678 2.552 1.306 3.906 1.757l1.197 8.688c.107.793.834 1.422 1.567 1.422h9.686c.728 0 1.354-.568 1.561-1.367.677-2.776.94-5.9 1.198-8.797a21.578 21.578 0 0 0 4.012-1.764l5.987 5.113c.314.226.677.397 1.097.397 1.51 0 7.342-6.925 8.382-8.462.263-.281.364-.678.364-1.08 0-.452-.151-.793-.364-1.135-1.667-2.16-3.228-4.259-4.683-6.528.677-1.422 1.248-2.837 1.662-4.32l8.074-1.36c.677-.11 1.198-.964 1.198-1.702V44.805zM100 75.071c0-.854-6.715-1.648-7.761-1.763-.414-1.02-.935-2.044-1.561-2.953.47-1.135 2.658-6.809 2.658-7.834a.492.492 0 0 0-.207-.396c-.627-.397-6.2-3.978-6.463-3.978l-.308.116c-1.774 1.934-3.335 4.142-4.796 6.357-.52-.055-1.04-.11-1.56-.11-.521 0-1.042.055-1.562.11-.52-.848-4.426-6.473-5.103-6.473-.263 0-5.837 3.636-6.463 3.978a.508.508 0 0 0-.207.396c0 .964 2.188 6.699 2.658 7.834-.627.909-1.148 1.934-1.562 2.953-1.04.115-7.76.909-7.76 1.763v7.95c0 .853 6.72 1.646 7.76 1.762a14.083 14.083 0 0 0 1.562 2.953c-.47 1.135-2.658 6.87-2.658 7.834 0 .116.056.286.207.396.626.397 6.2 4.033 6.463 4.033.677 0 4.583-5.68 5.103-6.528.52.055 1.04.11 1.561.11.52 0 1.04-.055 1.561-.11.52.848 4.426 6.528 5.104 6.528.263 0 5.836-3.636 6.463-4.033a.43.43 0 0 0 .207-.396c0-1.02-2.188-6.7-2.658-7.834a14.083 14.083 0 0 0 1.56-2.953c1.047-.116 7.762-.909 7.762-1.763v-7.95zm0-58.148c0-.854-6.715-1.647-7.761-1.763-.414-1.02-.935-2.044-1.561-2.953.47-1.135 2.658-6.815 2.658-7.834a.492.492 0 0 0-.207-.396C92.502 3.575 86.929 0 86.666 0l-.308.116c-1.774 1.928-3.335 4.142-4.796 6.357-.52-.055-1.04-.116-1.56-.116-.521 0-1.042.061-1.562.116C77.92 5.62 74.014 0 73.337 0c-.263 0-5.837 3.636-6.463 3.978a.508.508 0 0 0-.207.396c0 .964 2.188 6.7 2.658 7.834-.627.909-1.148 1.934-1.562 2.953-1.04.116-7.76.909-7.76 1.763v7.95c0 .847 6.72 1.647 7.76 1.756.414 1.08.935 2.05 1.562 2.953-.47 1.135-2.658 6.876-2.658 7.84 0 .116.056.28.207.397.626.396 6.2 4.032 6.463 4.032.677 0 4.583-5.68 5.103-6.528.52.055 1.04.11 1.561.11.52 0 1.04-.055 1.561-.11.52.848 4.426 6.528 5.104 6.528.263 0 5.836-3.636 6.463-4.032.156-.116.207-.226.207-.397 0-1.025-2.188-6.705-2.658-7.84a13.788 13.788 0 0 0 1.56-2.953c1.047-.11 7.762-.909 7.762-1.757v-7.95z" class="cls-1" id="path8" fill-rule="evenodd"/></symbol><symbol id="g-icon-user" viewBox="206 206 100 100"><path d="M283.719 267.938h-5.594c-6.178 0-11.188-5.01-11.188-11.188v-.705c5.069-5.981 8.391-15.02 8.391-21.67 0-10.814-2.797-22.375-19.578-22.375s-19.578 11.561-19.578 22.375c0 6.65 3.324 15.687 8.391 21.668v.707c0 6.178-5.01 11.188-11.188 11.188h-5.594s-10.139 2.797-16.781 16.781v11.188a5.591 5.591 0 0 0 5.594 5.594h78.313a5.591 5.591 0 0 0 5.594-5.594v-11.188c-6.643-13.985-16.782-16.781-16.782-16.781z"/></symbol><symbol id="g-icon-working" viewBox="0 0 100 100"><path d="M94.778 42.878l-8.281-1.381a37.256 37.256 0 0 0-4.763-11.416l4.613-6.456a6.189 6.189 0 0 0-.66-7.975l-1.337-1.337a6.188 6.188 0 0 0-7.975-.66l-6.46 4.613A37.256 37.256 0 0 0 58.5 13.503l-1.381-8.281A6.248 6.248 0 0 0 50.956 0h-1.912a6.251 6.251 0 0 0-6.166 5.222l-1.381 8.281a37.244 37.244 0 0 0-11.416 4.762l-6.453-4.612a6.196 6.196 0 0 0-7.978.66l-1.338 1.337a6.196 6.196 0 0 0-.659 7.978l4.613 6.456A37.255 37.255 0 0 0 13.503 41.5l-8.28 1.381A6.248 6.248 0 0 0 0 49.044v1.912a6.25 6.25 0 0 0 5.222 6.166l8.281 1.381a37.241 37.241 0 0 0 4.762 11.416l-4.612 6.456a6.188 6.188 0 0 0 .66 7.975l1.337 1.338a6.188 6.188 0 0 0 7.975.66l6.46-4.613A37.174 37.174 0 0 0 41.5 86.497l1.381 8.281A6.248 6.248 0 0 0 49.044 100h1.909a6.25 6.25 0 0 0 6.165-5.222l1.381-8.281a37.25 37.25 0 0 0 11.416-4.762l6.46 4.612a6.189 6.189 0 0 0 7.974-.66l1.338-1.337a6.188 6.188 0 0 0 .66-7.975l-4.613-6.456a37.255 37.255 0 0 0 4.762-11.416l8.282-1.381A6.254 6.254 0 0 0 100 50.956v-1.912a6.253 6.253 0 0 0-5.222-6.166zM50 68.75c-10.356 0-18.75-8.394-18.75-18.75S39.644 31.25 50 31.25 68.75 39.644 68.75 50 60.356 68.75 50 68.75z"/></symbol></svg>