<?xml version="1.0" encoding="utf-8"?>
<!-- Generator: Adobe Illustrator 16.0.0, SVG Export Plug-In . SVG Version: 6.00 Build 0)  -->
<!DOCTYPE svg PUBLIC "-//W3C//DTD SVG 1.1//EN" "http://www.w3.org/Graphics/SVG/1.1/DTD/svg11.dtd">
<svg version="1.1" id="Layer_1" xmlns="http://www.w3.org/2000/svg" xmlns:xlink="http://www.w3.org/1999/xlink" x="0px" y="0px"
	 width="100px" height="100px" viewBox="0 0 100 100" enable-background="new 0 0 100 100" xml:space="preserve">
<g>
	<g>
		<path d="M85.88,75.06l-3.708-3.821c1.269,0.154,2.485-0.653,2.808-1.927c0.348-1.379-0.487-2.78-1.868-3.13l-8.741-2.208
			c-0.88-0.223-1.813,0.034-2.454,0.676c-0.643,0.643-0.899,1.574-0.677,2.455l2.208,8.739c0.294,1.169,1.345,1.948,2.497,1.948
			c0.21,0,0.422-0.026,0.634-0.078c1.288-0.327,2.103-1.569,1.921-2.856l3.683,3.794c0.505,0.52,1.176,0.782,1.849,0.782
			c0.647,0,1.295-0.242,1.796-0.729C86.848,77.714,86.872,76.082,85.88,75.06z"/>
		<g>
			<path d="M43.058,46.614c-0.162-0.43-0.574-0.715-1.034-0.715c0,0-0.001,0-0.002,0l-1.861,0.003
				c-0.461,0.001-0.873,0.288-1.034,0.719l-6.471,17.386c-0.126,0.34-0.079,0.72,0.128,1.017s0.545,0.475,0.907,0.475h1.684
				c0.461,0,0.874-0.288,1.035-0.72l1.915-5.143h5.593l1.939,5.146c0.163,0.43,0.574,0.716,1.033,0.716h1.687
				c0.002,0,0.004,0,0.007,0c0.61,0,1.105-0.496,1.105-1.105c0-0.179-0.043-0.348-0.118-0.497L43.058,46.614z M39.735,55.85
				l1.369-3.68l1.387,3.68H39.735z"/>
			<path d="M57.186,45.824h-4.789c-0.61,0-1.104,0.495-1.104,1.104v17.359c0,0.61,0.493,1.105,1.104,1.105h4.789
				c5.502,0,9.977-4.384,9.977-9.772C67.162,50.219,62.688,45.824,57.186,45.824z M57.186,61.604H55.08V49.612h2.105
				c3.413,0,6.189,2.693,6.189,6.008C63.375,58.92,60.599,61.604,57.186,61.604z"/>
		</g>
	</g>
	<path d="M93.942,2.599H5.808C2.881,2.599,0.5,4.98,0.5,7.907v83c0,2.927,2.381,5.309,5.308,5.309h88.135
		c2.927,0,5.308-2.382,5.308-5.309v-83C99.25,4.98,96.869,2.599,93.942,2.599z M83.44,10.738c2.424,0,4.397,1.973,4.397,4.397
		s-1.974,4.398-4.397,4.398s-4.397-1.973-4.397-4.398S81.017,10.738,83.44,10.738z M68.527,10.738c2.425,0,4.397,1.973,4.397,4.397
		s-1.973,4.398-4.397,4.398s-4.398-1.973-4.398-4.398S66.103,10.738,68.527,10.738z M13.966,12.86h17.743
		c1.256,0,2.275,1.019,2.275,2.275s-1.019,2.275-2.275,2.275H13.966c-1.256,0-2.274-1.019-2.274-2.275S12.709,12.86,13.966,12.86z
		 M90.82,87.019c0,0.382-0.312,0.693-0.693,0.693H9.623c-0.382,0-0.692-0.312-0.692-0.693V29.857h81.89V87.019z"/>
</g>
</svg>
