<?xml version="1.0" encoding="UTF-8" standalone="no"?>
<!-- Generator: Adobe Illustrator 18.1.1, SVG Export Plug-In . SVG Version: 6.00 Build 0)  -->

<svg
   xmlns:dc="http://purl.org/dc/elements/1.1/"
   xmlns:cc="http://creativecommons.org/ns#"
   xmlns:rdf="http://www.w3.org/1999/02/22-rdf-syntax-ns#"
   xmlns:svg="http://www.w3.org/2000/svg"
   xmlns="http://www.w3.org/2000/svg"
   xmlns:sodipodi="http://sodipodi.sourceforge.net/DTD/sodipodi-0.dtd"
   xmlns:inkscape="http://www.inkscape.org/namespaces/inkscape"
   version="1.1"
   id="Capa_1"
   x="0px"
   y="0px"
   viewBox="0 0 99.999997 99.999997"
   xml:space="preserve"
   inkscape:version="0.91 r13725"
   sodipodi:docname="call.svg"
   width="100"
   height="100"><metadata
     id="metadata43"><rdf:RDF><cc:Work
         rdf:about=""><dc:format>image/svg+xml</dc:format><dc:type
           rdf:resource="http://purl.org/dc/dcmitype/StillImage" /><dc:title></dc:title></cc:Work></rdf:RDF></metadata><defs
     id="defs41" /><sodipodi:namedview
     pagecolor="#ffffff"
     bordercolor="#666666"
     borderopacity="1"
     objecttolerance="10"
     gridtolerance="10"
     guidetolerance="10"
     inkscape:pageopacity="0"
     inkscape:pageshadow="2"
     inkscape:window-width="1855"
     inkscape:window-height="1056"
     id="namedview39"
     showgrid="false"
     inkscape:zoom="5.0576893"
     inkscape:cx="83.530507"
     inkscape:cy="55.314344"
     inkscape:window-x="65"
     inkscape:window-y="24"
     inkscape:window-maximized="1"
     inkscape:current-layer="Capa_1" /><g
     id="g3"
     transform="matrix(0.18942397,0,0,0.18942397,-0.44158791,-1.3035664e-7)"><g
       id="g5"><path
         style="fill:#010002"
         d="M 284.233,154.195 211.317,1.793 240.005,0 l 63.353,135.668 -19.125,18.527 z m 118.335,154.196 -25.699,7.771 95.625,139.254 16.137,-23.906 -86.063,-123.119 z m -103.393,47.214 c -12.75,11.554 -24.899,28.286 -36.458,50.2 -81.68,-44.227 -120.727,-111.562 -117.141,-202.008 25.5,1.594 46.717,-0.498 63.65,-6.274 16.933,-5.777 33.768,-15.64 50.502,-29.584 -21.516,-47.413 -47.016,-100.206 -76.5,-158.377 -13.148,2.789 -29.086,9.562 -47.812,20.32 -24.305,14.344 -44.127,32.174 -59.467,53.49 -15.34,21.316 -25.699,44.525 -31.078,69.627 -5.379,25.102 -6.873,51.299 -4.482,78.592 2.391,27.293 8.766,54.688 19.125,82.178 6.773,18.328 15.34,36.656 25.699,54.984 10.758,18.729 23.707,37.854 38.848,57.375 23.906,30.68 51.498,54.885 82.775,72.615 31.277,17.729 64.149,27.393 98.614,28.986 34.465,1.593 68.631,-6.976 102.498,-25.699 20.317,-9.563 34.063,-20.121 41.235,-31.676 l -98.61,-145.23 c -21.517,8.767 -38.648,18.927 -51.398,30.481 z"
         id="path7"
         inkscape:connector-curvature="0" /></g></g><g
     id="g9"
     transform="translate(0,-427.91602)" /><g
     id="g11"
     transform="translate(0,-427.91602)" /><g
     id="g13"
     transform="translate(0,-427.91602)" /><g
     id="g15"
     transform="translate(0,-427.91602)" /><g
     id="g17"
     transform="translate(0,-427.91602)" /><g
     id="g19"
     transform="translate(0,-427.91602)" /><g
     id="g21"
     transform="translate(0,-427.91602)" /><g
     id="g23"
     transform="translate(0,-427.91602)" /><g
     id="g25"
     transform="translate(0,-427.91602)" /><g
     id="g27"
     transform="translate(0,-427.91602)" /><g
     id="g29"
     transform="translate(0,-427.91602)" /><g
     id="g31"
     transform="translate(0,-427.91602)" /><g
     id="g33"
     transform="translate(0,-427.91602)" /><g
     id="g35"
     transform="translate(0,-427.91602)" /><g
     id="g37"
     transform="translate(0,-427.91602)" /></svg>