<?xml version="1.0" encoding="utf-8"?>
<!-- Generator: Adobe Illustrator 16.0.0, SVG Export Plug-In . SVG Version: 6.00 Build 0)  -->
<!DOCTYPE svg PUBLIC "-//W3C//DTD SVG 1.1//EN" "http://www.w3.org/Graphics/SVG/1.1/DTD/svg11.dtd">
<svg version="1.1" id="Layer_1" xmlns="http://www.w3.org/2000/svg" xmlns:xlink="http://www.w3.org/1999/xlink" x="0px" y="0px"
	 width="100px" height="100px" viewBox="0 0 100 100" enable-background="new 0 0 100 100" xml:space="preserve">
<path d="M50.636,3.446C24.7,3.446,3.673,24.473,3.673,50.409c0,25.939,21.026,46.963,46.962,46.963
	c25.939,0,46.963-21.023,46.963-46.963C97.599,24.473,76.575,3.446,50.636,3.446z M74.001,68.925l-7.781,6.98L50.276,58.134
	L32.528,75.829l-3.65-3.661c0-0.001-0.001-0.001-0.002-0.002s-0.001-0.001-0.002-0.002l-3.727-3.738l18.138-18.083L26.974,32.161
	l3.914-3.512l3.866-3.469l15.944,17.772l18.031-17.977l7.381,7.402L57.689,50.743L74.001,68.925z"/>
</svg>
