<?xml version="1.0" encoding="UTF-8" standalone="no"?>
<!-- Generator: Adobe Illustrator 19.0.0, SVG Export Plug-In . SVG Version: 6.00 Build 0)  -->

<svg
   xmlns:dc="http://purl.org/dc/elements/1.1/"
   xmlns:cc="http://creativecommons.org/ns#"
   xmlns:rdf="http://www.w3.org/1999/02/22-rdf-syntax-ns#"
   xmlns:svg="http://www.w3.org/2000/svg"
   xmlns="http://www.w3.org/2000/svg"
   xmlns:sodipodi="http://sodipodi.sourceforge.net/DTD/sodipodi-0.dtd"
   xmlns:inkscape="http://www.inkscape.org/namespaces/inkscape"
   version="1.1"
   id="Capa_1"
   x="0px"
   y="0px"
   viewBox="0 0 99.999999 99.999999"
   xml:space="preserve"
   inkscape:version="0.91 r13725"
   sodipodi:docname="computer.svg"
   width="100"
   height="100"><metadata
     id="metadata45"><rdf:RDF><cc:Work
         rdf:about=""><dc:format>image/svg+xml</dc:format><dc:type
           rdf:resource="http://purl.org/dc/dcmitype/StillImage" /><dc:title></dc:title></cc:Work></rdf:RDF></metadata><defs
     id="defs43" /><sodipodi:namedview
     pagecolor="#ffffff"
     bordercolor="#666666"
     borderopacity="1"
     objecttolerance="10"
     gridtolerance="10"
     guidetolerance="10"
     inkscape:pageopacity="0"
     inkscape:pageshadow="2"
     inkscape:window-width="1855"
     inkscape:window-height="1056"
     id="namedview41"
     showgrid="false"
     inkscape:zoom="5.4526902"
     inkscape:cx="50.97842"
     inkscape:cy="51.278717"
     inkscape:window-x="65"
     inkscape:window-y="24"
     inkscape:window-maximized="1"
     inkscape:current-layer="Capa_1" /><g
     id="g3"
     transform="matrix(0.20421875,0,0,0.20421875,0,0.096694)"><g
       id="g5"><g
         id="g7"><path
           d="m 205,319.237 c 5,14.6 12.4,28.5 22.5,41.1 l -161.1,0 -32.5,0 c -18.7,0 -33.9,-15.2 -33.9,-33.9 l 0,-20.9 27.4,0 1.4,0 0,-215.6 c 0,-17 13.8,-30.7 30.7,-30.7 l 319.1,0 c 17,0 30.7,13.8 30.7,30.7 l 0,71 c -12.9,-8.5 -27,-14.7 -41.9,-18.4 l 0,-41.4 -296.7,0 0,204.4 107.2,0 0,2.1 c 0,6.4 5.2,11.6 11.7,11.6 l 15.4,0 z m 276.7,68.2 c 10.2,9.1 10.7,25 1,34.6 l -1.4,1.4 c -4.7,4.7 -10.8,7 -16.9,7 -6.5,0 -13.1,-2.7 -17.8,-8 l -49.1,-57.3 c -18.9,13.3 -41.1,20 -63.3,20 -28.2,0 -56.3,-10.7 -77.8,-32.2 -43,-43 -43,-112.7 0,-155.7 21.5,-21.5 49.7,-32.2 77.8,-32.2 28.2,0 56.3,10.7 77.8,32.2 38.4,38.4 42.5,98.1 12.3,141.1 l 57.4,49.1 z m -96.2,-163.4 c -14.2,-14.1 -32.7,-21.2 -51.2,-21.2 -18.5,0 -37,7.1 -51.1,21.2 -28.2,28.2 -28.2,74 0,102.2 14.1,14.1 32.6,21.2 51.1,21.2 18.5,0 37,-7.1 51.1,-21.2 28.3,-28.2 28.3,-74 0.1,-102.2 z"
           id="path9"
           inkscape:connector-curvature="0" /></g></g></g><g
     id="g11"
     transform="translate(0,-389.673)" /><g
     id="g13"
     transform="translate(0,-389.673)" /><g
     id="g15"
     transform="translate(0,-389.673)" /><g
     id="g17"
     transform="translate(0,-389.673)" /><g
     id="g19"
     transform="translate(0,-389.673)" /><g
     id="g21"
     transform="translate(0,-389.673)" /><g
     id="g23"
     transform="translate(0,-389.673)" /><g
     id="g25"
     transform="translate(0,-389.673)" /><g
     id="g27"
     transform="translate(0,-389.673)" /><g
     id="g29"
     transform="translate(0,-389.673)" /><g
     id="g31"
     transform="translate(0,-389.673)" /><g
     id="g33"
     transform="translate(0,-389.673)" /><g
     id="g35"
     transform="translate(0,-389.673)" /><g
     id="g37"
     transform="translate(0,-389.673)" /><g
     id="g39"
     transform="translate(0,-389.673)" /></svg>