<?xml version="1.0" encoding="UTF-8" standalone="no"?>
<svg
   xmlns:dc="http://purl.org/dc/elements/1.1/"
   xmlns:cc="http://creativecommons.org/ns#"
   xmlns:rdf="http://www.w3.org/1999/02/22-rdf-syntax-ns#"
   xmlns:svg="http://www.w3.org/2000/svg"
   xmlns="http://www.w3.org/2000/svg"
   version="1.1"
   id="svg2"
   viewBox="0 0 100 100"
   height="100"
   width="100">
  <metadata
     id="metadata10">
    <rdf:RDF>
      <cc:Work
         rdf:about="">
        <dc:format>image/svg+xml</dc:format>
        <dc:type
           rdf:resource="http://purl.org/dc/dcmitype/StillImage" />
        <dc:title></dc:title>
      </cc:Work>
    </rdf:RDF>
  </metadata>
  <defs
     id="defs8" />
  <path
     id="path4"
     d="m 49.775785,70.269058 6.502242,-6.502242 -8.520179,-8.520179 -6.502243,6.502242 0,3.139013 5.381166,0 0,5.381166 3.139014,0 z M 74.439462,29.910314 q -0.896861,-0.896861 -1.849776,0.05605 L 52.970852,49.585202 q -0.952915,0.952915 -0.05605,1.849776 0.896861,0.896861 1.849776,-0.05605 L 74.383408,31.76009 q 0.952915,-0.952915 0.05605,-1.849776 z m 4.484305,33.295964 0,10.650224 q 0,6.670404 -4.736547,11.406951 Q 69.450673,90 62.780269,90 L 16.143498,90 Q 9.4730942,90 4.7365471,85.263453 0,80.526906 0,73.856502 L 0,27.219731 Q 0,20.549327 4.7365471,15.81278 9.4730942,11.076233 16.143498,11.076233 l 46.636771,0 q 3.53139,0 6.558296,1.401345 0.840807,0.392377 1.008969,1.289238 0.168161,0.952915 -0.504485,1.625561 l -2.746636,2.746636 q -0.784754,0.784754 -1.793722,0.448431 -1.289238,-0.336323 -2.522422,-0.336323 l -46.636771,0 q -3.699552,0 -6.334081,2.634529 -2.6345291,2.634529 -2.6345291,6.334081 l 0,46.636771 q 0,3.699552 2.6345291,6.334081 2.634529,2.634529 6.334081,2.634529 l 46.636771,0 q 3.699552,0 6.334081,-2.634529 2.634529,-2.634529 2.634529,-6.334081 l 0,-7.06278 q 0,-0.7287 0.504484,-1.233184 l 3.587444,-3.587444 q 0.840807,-0.840807 1.961884,-0.392377 1.121076,0.448431 1.121076,1.625561 z m -5.381166,-41.367713 16.143498,16.143498 -37.668162,37.668161 -16.143498,0 0,-16.143498 z m 24.887892,7.399103 -5.15695,5.156951 -16.143498,-16.143498 5.156951,-5.156951 q 1.569506,-1.569506 3.811659,-1.569506 2.242152,0 3.811659,1.569506 l 8.520179,8.52018 Q 100,23.183857 100,25.426009 q 0,2.242152 -1.569507,3.811659 z" />
</svg>
