<?xml version="1.0" encoding="UTF-8" standalone="no"?>
<svg
   xmlns:dc="http://purl.org/dc/elements/1.1/"
   xmlns:cc="http://creativecommons.org/ns#"
   xmlns:rdf="http://www.w3.org/1999/02/22-rdf-syntax-ns#"
   xmlns:svg="http://www.w3.org/2000/svg"
   xmlns="http://www.w3.org/2000/svg"
   xmlns:sodipodi="http://sodipodi.sourceforge.net/DTD/sodipodi-0.dtd"
   xmlns:inkscape="http://www.inkscape.org/namespaces/inkscape"
   version="1.1"
   viewBox="0 0 100 100"
   enable-background="new 0 0 129 129"
   id="svg2"
   inkscape:version="0.91 r13725"
   sodipodi:docname="logout.svg"
   width="100"
   height="100">
  <metadata
     id="metadata16">
    <rdf:RDF>
      <cc:Work
         rdf:about="">
        <dc:format>image/svg+xml</dc:format>
        <dc:type
           rdf:resource="http://purl.org/dc/dcmitype/StillImage" />
        <dc:title></dc:title>
      </cc:Work>
    </rdf:RDF>
  </metadata>
  <defs
     id="defs14" />
  <sodipodi:namedview
     pagecolor="#ffffff"
     bordercolor="#666666"
     borderopacity="1"
     objecttolerance="10"
     gridtolerance="10"
     guidetolerance="10"
     inkscape:pageopacity="0"
     inkscape:pageshadow="2"
     inkscape:window-width="1855"
     inkscape:window-height="1056"
     id="namedview12"
     showgrid="false"
     inkscape:zoom="1.8294574"
     inkscape:cx="64.5"
     inkscape:cy="64.5"
     inkscape:window-x="65"
     inkscape:window-y="24"
     inkscape:window-maximized="1"
     inkscape:current-layer="svg2" />
  <g
     id="g4"
     transform="matrix(0.86132416,0,0,0.86132416,-5.5124746,-5.5122096)">
    <g
       id="g6">
      <path
         d="m 88.6,94.4 c 0.8,0.8 1.8,1.2 2.9,1.2 1.1,0 2.1,-0.4 2.9,-1.2 l 27,-27 c 0.2,-0.2 0.4,-0.4 0.5,-0.6 0,0 0.1,-0.1 0.1,-0.2 0.1,-0.2 0.2,-0.4 0.3,-0.5 0,-0.1 0,-0.2 0.1,-0.2 0.1,-0.2 0.1,-0.3 0.2,-0.5 0.1,-0.3 0.1,-0.5 0.1,-0.8 0,-0.3 0,-0.5 -0.1,-0.8 0,-0.2 -0.1,-0.4 -0.2,-0.5 0,-0.1 0,-0.2 -0.1,-0.2 -0.1,-0.2 -0.2,-0.4 -0.3,-0.6 0,0 0,-0.1 -0.1,-0.1 -0.1,-0.2 -0.3,-0.4 -0.5,-0.6 l -27,-27 c -1.6,-1.6 -4.2,-1.6 -5.8,0 -1.6,1.6 -1.6,4.2 0,5.8 l 20,20 -71.1,0 c -2.3,0 -4.1,1.8 -4.1,4.1 0,2.3 1.8,4.1 4.1,4.1 l 71.1,0 -20,20 c -1.6,1.4 -1.6,4 0,5.6 z"
         id="path8"
         inkscape:connector-curvature="0" />
      <path
         d="m 10.5,122.5 54,0 c 2.3,0 4.1,-1.8 4.1,-4.1 l 0,-40.3 c 0,-2.3 -1.8,-4.1 -4.1,-4.1 -2.3,0 -4.1,1.8 -4.1,4.1 l 0,36.2 -45.8,0 0,-99.7 45.8,0 0,36.2 c 0,2.3 1.8,4.1 4.1,4.1 2.3,0 4.1,-1.8 4.1,-4.1 l 0,-40.3 c 0,-2.3 -1.8,-4.1 -4.1,-4.1 l -54,0 c -2.3,0 -4.1,1.8 -4.1,4.1 l 0,107.9 c 0.1,2.3 1.9,4.1 4.1,4.1 z"
         id="path10"
         inkscape:connector-curvature="0" />
    </g>
  </g>
</svg>
