<?xml version="1.0" encoding="UTF-8" standalone="no"?>
<!-- Generator: Adobe Illustrator 19.0.0, SVG Export Plug-In . SVG Version: 6.00 Build 0)  -->

<svg
   xmlns:dc="http://purl.org/dc/elements/1.1/"
   xmlns:cc="http://creativecommons.org/ns#"
   xmlns:rdf="http://www.w3.org/1999/02/22-rdf-syntax-ns#"
   xmlns:svg="http://www.w3.org/2000/svg"
   xmlns="http://www.w3.org/2000/svg"
   xmlns:sodipodi="http://sodipodi.sourceforge.net/DTD/sodipodi-0.dtd"
   xmlns:inkscape="http://www.inkscape.org/namespaces/inkscape"
   version="1.1"
   id="Layer_1"
   x="0px"
   y="0px"
   viewBox="0 0 100 100"
   xml:space="preserve"
   inkscape:version="0.91 r13725"
   sodipodi:docname="megaphone.svg"
   width="100"
   height="100"><metadata
     id="metadata61"><rdf:RDF><cc:Work
         rdf:about=""><dc:format>image/svg+xml</dc:format><dc:type
           rdf:resource="http://purl.org/dc/dcmitype/StillImage" /><dc:title></dc:title></cc:Work></rdf:RDF></metadata><defs
     id="defs59" /><sodipodi:namedview
     pagecolor="#ffffff"
     bordercolor="#666666"
     borderopacity="1"
     objecttolerance="10"
     gridtolerance="10"
     guidetolerance="10"
     inkscape:pageopacity="0"
     inkscape:pageshadow="2"
     inkscape:window-width="1855"
     inkscape:window-height="1056"
     id="namedview57"
     showgrid="false"
     inkscape:zoom="3.6875"
     inkscape:cx="101.29154"
     inkscape:cy="11.714009"
     inkscape:window-x="65"
     inkscape:window-y="24"
     inkscape:window-maximized="1"
     inkscape:current-layer="Layer_1" /><g
     id="g3"
     transform="matrix(0.1953125,0,0,0.1953125,0,0.694531)"><g
       id="g5"><path
         d="m 66.783,333.919 0,100.174 c 0,18.442 14.949,33.391 33.391,33.391 18.442,0 33.391,-14.95 33.391,-33.391 l 0,-100.174 -66.782,0 z"
         id="path7"
         inkscape:connector-curvature="0" /></g></g><g
     id="g9"
     transform="matrix(0.1953125,0,0,0.1953125,0,0.694531)"><g
       id="g11"><path
         d="M 50.087,133.571 C 22.468,133.571 0,156.039 0,183.658 l 0,66.783 c 0,27.619 22.468,50.087 50.087,50.087 l 83.478,0 0,-166.957 -83.478,0 z m 16.696,133.565 -16.696,0 c -9.206,0 -16.696,-7.49 -16.696,-16.696 l 0,-66.783 c 0,-9.206 7.49,-16.696 16.696,-16.696 l 16.696,0 0,100.175 z"
         id="path13"
         inkscape:connector-curvature="0" /></g></g><g
     id="g15"
     transform="matrix(0.1953125,0,0,0.1953125,0,0.694531)"><g
       id="g17"><polygon
         points="166.957,300.516 378.435,375.058 378.435,59.025 166.957,133.571 "
         id="polygon19" /></g></g><g
     id="g21"
     transform="matrix(0.1953125,0,0,0.1953125,0,0.694531)"><g
       id="g23"><path
         d="m 445.217,144.701 0,-83.485 c 0,-11.428 -11.256,-19.533 -22.195,-15.766 l -11.196,3.408 0,336.364 11.196,3.408 c 10.794,3.762 22.195,-4.23 22.195,-15.766 l 0,-94.598 c 36.826,0 66.783,-29.956 66.783,-66.783 0,-36.827 -29.956,-66.782 -66.783,-66.782 z m 0,100.113 0,-66.671 c 18.237,-0.329 33.391,14.93 33.391,33.34 0,18.41 -15.163,33.338 -33.391,33.331 z"
         id="path25"
         inkscape:connector-curvature="0" /></g></g><g
     id="g27"
     transform="translate(0,-412)" /><g
     id="g29"
     transform="translate(0,-412)" /><g
     id="g31"
     transform="translate(0,-412)" /><g
     id="g33"
     transform="translate(0,-412)" /><g
     id="g35"
     transform="translate(0,-412)" /><g
     id="g37"
     transform="translate(0,-412)" /><g
     id="g39"
     transform="translate(0,-412)" /><g
     id="g41"
     transform="translate(0,-412)" /><g
     id="g43"
     transform="translate(0,-412)" /><g
     id="g45"
     transform="translate(0,-412)" /><g
     id="g47"
     transform="translate(0,-412)" /><g
     id="g49"
     transform="translate(0,-412)" /><g
     id="g51"
     transform="translate(0,-412)" /><g
     id="g53"
     transform="translate(0,-412)" /><g
     id="g55"
     transform="translate(0,-412)" /></svg>