<?xml version="1.0" encoding="utf-8"?>
<!-- Generator: Adobe Illustrator 16.0.0, SVG Export Plug-In . SVG Version: 6.00 Build 0)  -->
<!DOCTYPE svg PUBLIC "-//W3C//DTD SVG 1.1//EN" "http://www.w3.org/Graphics/SVG/1.1/DTD/svg11.dtd">
<svg version="1.1" id="Capa_2" xmlns="http://www.w3.org/2000/svg" xmlns:xlink="http://www.w3.org/1999/xlink" x="0px" y="0px"
	 width="100px" height="100px" viewBox="0 0 100 100" enable-background="new 0 0 100 100" xml:space="preserve">
<g>
	<path d="M60.066,20.736c4.526,2.837,7.699,7.639,8.277,13.212c1.846,0.864,3.894,1.36,6.066,1.36
		c7.928,0,14.354-6.427,14.354-14.354c0-7.928-6.427-14.355-14.354-14.355C66.557,6.601,60.187,12.913,60.066,20.736z
		 M50.662,50.129c7.929,0,14.355-6.428,14.355-14.355c0-7.928-6.427-14.355-14.355-14.355c-7.928,0-14.357,6.429-14.357,14.355
		C36.305,43.701,42.734,50.129,50.662,50.129z M56.75,51.107H44.57c-10.135,0-18.38,8.245-18.38,18.379v14.896l0.037,0.234
		l1.027,0.322c9.672,3.021,18.075,4.029,24.99,4.029c13.511,0,21.339-3.853,21.822-4.096l0.96-0.487h0.103V69.486
		C75.131,59.353,66.886,51.107,56.75,51.107z M80.501,36.286H68.415c-0.131,4.836-2.195,9.192-5.461,12.322
		c9.008,2.68,15.601,11.034,15.601,20.901v4.592c11.934-0.439,18.812-3.82,19.265-4.05l0.957-0.484h0.103v-14.9
		C98.879,44.531,90.634,36.286,80.501,36.286z M25.473,35.311c2.808,0,5.42-0.821,7.635-2.217c0.704-4.59,3.164-8.599,6.678-11.33
		c0.014-0.27,0.041-0.535,0.041-0.806c0-7.93-6.427-14.356-14.353-14.356c-7.93,0-14.355,6.426-14.355,14.356
		C11.118,28.882,17.543,35.311,25.473,35.311z M38.365,48.608c-3.249-3.115-5.307-7.446-5.457-12.253
		c-0.448-0.034-0.891-0.069-1.349-0.069H19.38C9.245,36.286,1,44.531,1,54.667v14.898l0.038,0.229l1.026,0.325
		c7.759,2.421,14.684,3.537,20.699,3.889V69.51C22.765,59.643,29.354,51.291,38.365,48.608z"/>
</g>
</svg>
