<?xml version="1.0" encoding="UTF-8" standalone="no"?>
<svg
   xmlns:dc="http://purl.org/dc/elements/1.1/"
   xmlns:cc="http://creativecommons.org/ns#"
   xmlns:rdf="http://www.w3.org/1999/02/22-rdf-syntax-ns#"
   xmlns:svg="http://www.w3.org/2000/svg"
   xmlns="http://www.w3.org/2000/svg"
   xmlns:sodipodi="http://sodipodi.sourceforge.net/DTD/sodipodi-0.dtd"
   xmlns:inkscape="http://www.inkscape.org/namespaces/inkscape"
   preserveAspectRatio="xMidYMid"
   width="100"
   height="100"
   viewBox="0 0 99.999998 100"
   id="svg2"
   version="1.1"
   inkscape:version="0.48.4 r9939"
   sodipodi:docname="uE07E-three_nuts.svg">
  <metadata
     id="metadata12">
    <rdf:RDF>
      <cc:Work
         rdf:about="">
        <dc:format>image/svg+xml</dc:format>
        <dc:type
           rdf:resource="http://purl.org/dc/dcmitype/StillImage" />
      </cc:Work>
    </rdf:RDF>
  </metadata>
  <sodipodi:namedview
     pagecolor="#ffffff"
     bordercolor="#666666"
     borderopacity="1"
     objecttolerance="10"
     gridtolerance="10"
     guidetolerance="10"
     inkscape:pageopacity="0"
     inkscape:pageshadow="2"
     inkscape:window-width="1366"
     inkscape:window-height="743"
     id="namedview10"
     showgrid="false"
     fit-margin-top="0"
     fit-margin-left="0"
     fit-margin-right="0"
     fit-margin-bottom="0"
     inkscape:zoom="4"
     inkscape:cx="28.05203"
     inkscape:cy="58.612471"
     inkscape:window-x="1366"
     inkscape:window-y="0"
     inkscape:window-maximized="1"
     inkscape:current-layer="svg2" />
  <defs
     id="defs4">
    <style
       id="style6">
      .cls-1 {
        fill: #565656;
        fill-rule: evenodd;
      }
    </style>
  </defs>
  <path
     d="m 46.667786,49.972546 c 0,8.004393 -5.987353,14.538467 -13.334452,14.538467 -7.341503,0 -13.334453,-6.534074 -13.334453,-14.538467 0,-8.004392 5.99295,-14.538466 13.334453,-14.538466 7.347099,0 13.334452,6.534074 13.334452,14.538466 z M 86.665549,79.04948 c 0,3.971692 -2.965699,7.266183 -6.664428,7.266183 -3.648369,0 -6.664429,-3.239583 -6.664429,-7.266183 0,-3.977793 3.01606,-7.272284 6.664429,-7.272284 3.648369,0 6.664428,3.294491 6.664428,7.272284 z m 0,-58.153866 c 0,3.977792 -2.965699,7.272283 -6.664428,7.272283 -3.648369,0 -6.664429,-3.239582 -6.664429,-7.272283 0,-3.971692 3.01606,-7.266183 6.664429,-7.266183 3.648369,0 6.664428,3.294491 6.664428,7.266183 z M 66.666668,44.805076 c 0,-0.793118 -0.520396,-1.531328 -1.247832,-1.702153 L 57.50098,41.797328 c -0.470035,-1.592337 -1.091153,-3.123665 -1.768228,-4.661094 1.454872,-2.21463 3.01606,-4.258435 4.526888,-6.473065 0.212635,-0.341651 0.369313,-0.683302 0.369313,-1.079861 0,-1.586236 -6.149628,-7.71765 -7.503777,-9.084253 -0.313357,-0.286743 -0.677075,-0.451468 -1.091153,-0.451468 -0.363718,0 -0.733032,0.109817 -1.040793,0.396559 l -6.149628,5.051553 c -1.247832,-0.677201 -2.55162,-1.305594 -3.905769,-1.757062 l -1.197471,-8.687694 c -0.106317,-0.799219 -0.833753,-1.421512 -1.561188,-1.421512 l -9.686084,0 c -0.733031,0 -1.354149,0.567384 -1.566784,1.360503 -0.677075,2.782014 -0.934475,5.90568 -1.197471,8.748703 -1.40451,0.506376 -2.708298,1.079861 -4.006491,1.818071 l -5.99295,-5.112562 c -0.313356,-0.231834 -0.677074,-0.396559 -1.091153,-0.396559 -1.510827,0 -7.3470993,6.869624 -8.3878913,8.400952 -0.2574,0.341651 -0.363718,0.73821 -0.363718,1.134769 0,0.396559 0.156679,0.799219 0.363718,1.134769 1.667506,2.159722 3.228695,4.264536 4.6891613,6.534074 -0.677074,1.421512 -1.2534273,2.836923 -1.6675063,4.313343 l -8.074534,1.366603 C 0.52039572,43.041914 -2.8250955e-7,43.896041 -2.8250955e-7,44.634251 l 0,10.505765 c 0,0.793119 0.52039600250955,1.531329 1.25342798250955,1.647246 l 7.91226,1.360503 c 0.470035,1.592337 1.0967493,3.123666 1.8241843,4.661095 -1.5108273,2.208529 -3.0720163,4.313343 -4.5828443,6.473064 -0.207039,0.33555 -0.363717,0.677201 -0.363717,1.07376 0,1.647246 6.1440323,7.723751 7.4981813,9.090355 0.313357,0.280642 0.677075,0.451467 1.096749,0.451467 0.363718,0 0.777797,-0.109816 1.040793,-0.396559 l 6.144032,-5.051553 c 1.253427,0.677201 2.55162,1.305595 3.905769,1.757062 l 1.197471,8.687695 c 0.106317,0.793118 0.833753,1.421512 1.566784,1.421512 l 9.686084,0 c 0.727435,0 1.354149,-0.567385 1.561188,-1.366604 0.677075,-2.775914 0.940071,-5.899579 1.197471,-8.797511 1.40451,-0.457568 2.708298,-1.024953 4.012087,-1.763163 l 5.987353,5.112562 c 0.313358,0.225734 0.677075,0.396559 1.09675,0.396559 1.510827,0 7.341503,-6.924532 8.382295,-8.461961 0.262996,-0.280642 0.363718,-0.677201 0.363718,-1.079861 0,-0.451467 -0.151083,-0.793118 -0.363718,-1.134769 -1.667506,-2.159722 -3.228694,-4.258434 -4.683566,-6.527972 0.677075,-1.421512 1.247832,-2.836924 1.661911,-4.319445 l 8.074534,-1.360502 c 0.677075,-0.109817 1.197471,-0.963944 1.197471,-1.702154 l 0,-10.505766 z M 100,75.071687 c 0,-0.854127 -6.714788,-1.647245 -7.761176,-1.763163 -0.414078,-1.018851 -0.934475,-2.043804 -1.561188,-2.95284 0.470035,-1.134769 2.657937,-6.808614 2.657937,-7.833567 0,-0.115917 -0.05036,-0.286743 -0.207039,-0.396559 -0.626714,-0.396559 -6.199989,-3.977793 -6.462985,-3.977793 l -0.307761,0.115917 c -1.773824,1.933988 -3.335012,4.142518 -4.795479,6.357148 -0.520396,-0.05491 -1.040792,-0.109817 -1.561188,-0.109817 -0.520397,0 -1.040793,0.05491 -1.561189,0.109817 -0.520396,-0.848027 -4.426165,-6.473065 -5.10324,-6.473065 -0.262996,0 -5.836271,3.636142 -6.462985,3.977793 -0.151082,0.109816 -0.207039,0.280642 -0.207039,0.396559 0,0.963944 2.187902,6.698798 2.657937,7.833567 -0.626713,0.909036 -1.147109,1.933989 -1.561188,2.95284 -1.040792,0.115918 -7.761178,0.909036 -7.761178,1.763163 l 0,7.949485 c 0,0.854127 6.720386,1.647245 7.761178,1.763162 0.414079,1.07376 0.934475,2.043805 1.561188,2.95284 -0.470035,1.13477 -2.657937,6.869624 -2.657937,7.833568 0,0.115917 0.05596,0.286742 0.207039,0.396559 C 67.500421,96.36386 73.073696,100 73.336692,100 c 0.677075,0 4.582844,-5.679945 5.10324,-6.527971 0.520396,0.05491 1.040792,0.109816 1.561189,0.109816 0.520396,0 1.040792,-0.05491 1.561188,-0.109816 C 82.082705,94.320055 85.988474,100 86.665549,100 c 0.262996,0 5.836271,-3.63614 6.462985,-4.032699 0.156678,-0.109817 0.207039,-0.225734 0.207039,-0.396559 0,-1.018852 -2.187902,-6.698798 -2.657937,-7.833568 0.626713,-0.909035 1.14711,-1.87908 1.561188,-2.95284 C 93.285212,84.668417 100,83.875299 100,83.021172 l 0,-7.949485 z m 0,-58.147765 c 0,-0.854127 -6.714788,-1.647246 -7.761176,-1.763163 -0.414078,-1.018852 -0.934475,-2.043804 -1.561188,-2.95284 0.470035,-1.134769 2.657937,-6.814715 2.657937,-7.833567 0,-0.115917 -0.05036,-0.286743 -0.207039,-0.396559 C 92.50182,3.575133 86.928545,0 86.665549,0 l -0.307761,0.115917 c -1.773824,1.927888 -3.335012,4.142518 -4.795479,6.357148 -0.520396,-0.05491 -1.040792,-0.115918 -1.561188,-0.115918 -0.520397,0 -1.040793,0.06101 -1.561189,0.115918 C 77.919536,5.618937 74.013767,0 73.336692,0 c -0.262996,0 -5.836271,3.636142 -6.462985,3.977793 -0.151082,0.109816 -0.207039,0.280642 -0.207039,0.396559 0,0.963944 2.187902,6.698798 2.657937,7.833567 -0.626713,0.909036 -1.147109,1.933988 -1.561188,2.95284 -1.040792,0.115917 -7.761178,0.909036 -7.761178,1.763163 l 0,7.949484 c 0,0.848027 6.720386,1.647246 7.761178,1.757062 0.414079,1.079861 0.934475,2.049906 1.561188,2.95284 -0.470035,1.134769 -2.657937,6.875725 -2.657937,7.839669 0,0.115917 0.05596,0.280641 0.207039,0.396559 0.626714,0.396559 6.199989,4.032701 6.462985,4.032701 0.677075,0 4.582844,-5.679947 5.10324,-6.527973 0.520396,0.05491 1.040792,0.109816 1.561189,0.109816 0.520396,0 1.040792,-0.05491 1.561188,-0.109816 0.520396,0.848026 4.426165,6.527973 5.10324,6.527973 0.262996,0 5.836271,-3.636142 6.462985,-4.032701 0.156678,-0.115918 0.207039,-0.225734 0.207039,-0.396559 0,-1.024953 -2.187902,-6.7049 -2.657937,-7.839669 0.626713,-0.902934 1.14711,-1.872979 1.561188,-2.95284 C 93.285212,26.520652 100,25.721433 100,24.873406 l 0,-7.949484 z"
     class="cls-1"
     id="path8"
     inkscape:connector-curvature="0"
     style="fill:#000000;fill-rule:evenodd" />
</svg>
