<?xml version="1.0" encoding="utf-8"?>
<!-- Generator: Adobe Illustrator 16.0.0, SVG Export Plug-In . SVG Version: 6.00 Build 0)  -->
<!DOCTYPE svg PUBLIC "-//W3C//DTD SVG 1.1//EN" "http://www.w3.org/Graphics/SVG/1.1/DTD/svg11.dtd">
<svg version="1.1" id="Capa_1" xmlns="http://www.w3.org/2000/svg" xmlns:xlink="http://www.w3.org/1999/xlink" x="0px" y="0px"
	 width="100px" height="100px" viewBox="206 206 100 100" enable-background="new 206 206 100 100" xml:space="preserve">
<g>
	<path d="M283.719,267.938h-5.594c-6.178,0-11.188-5.01-11.188-11.188v-0.705c5.069-5.981,8.391-15.02,8.391-21.67
		c0-10.814-2.797-22.375-19.578-22.375s-19.578,11.561-19.578,22.375c0,6.65,3.324,15.687,8.391,21.668v0.707
		c0,6.178-5.01,11.188-11.188,11.188h-5.594c0,0-10.139,2.797-16.781,16.781v11.188c0,3.091,2.502,5.594,5.594,5.594h78.313
		c3.092,0,5.594-2.503,5.594-5.594v-11.188C293.858,270.734,283.719,267.938,283.719,267.938z"/>
</g>
</svg>
