<?xml version="1.0" encoding="UTF-8" standalone="no"?>
<!-- Generator: Adobe Illustrator 16.0.0, SVG Export Plug-In . SVG Version: 6.00 Build 0)  -->

<svg
   xmlns:dc="http://purl.org/dc/elements/1.1/"
   xmlns:cc="http://creativecommons.org/ns#"
   xmlns:rdf="http://www.w3.org/1999/02/22-rdf-syntax-ns#"
   xmlns:svg="http://www.w3.org/2000/svg"
   xmlns="http://www.w3.org/2000/svg"
   xmlns:sodipodi="http://sodipodi.sourceforge.net/DTD/sodipodi-0.dtd"
   xmlns:inkscape="http://www.inkscape.org/namespaces/inkscape"
   version="1.1"
   id="Capa_1"
   x="0px"
   y="0px"
   width="100"
   height="100"
   viewBox="0 0 100 100"
   xml:space="preserve"
   inkscape:version="0.91 r13725"
   sodipodi:docname="working.svg"><metadata
     id="metadata46"><rdf:RDF><cc:Work
         rdf:about=""><dc:format>image/svg+xml</dc:format><dc:type
           rdf:resource="http://purl.org/dc/dcmitype/StillImage" /><dc:title></dc:title></cc:Work></rdf:RDF></metadata><defs
     id="defs44" /><sodipodi:namedview
     pagecolor="#ffffff"
     bordercolor="#666666"
     borderopacity="1"
     objecttolerance="10"
     gridtolerance="10"
     guidetolerance="10"
     inkscape:pageopacity="0"
     inkscape:pageshadow="2"
     inkscape:window-width="1855"
     inkscape:window-height="1056"
     id="namedview42"
     showgrid="false"
     inkscape:zoom="8.7256052"
     inkscape:cx="38.753957"
     inkscape:cy="51.050553"
     inkscape:window-x="65"
     inkscape:window-y="24"
     inkscape:window-maximized="1"
     inkscape:current-layer="Capa_1" /><g
     id="g3"
     transform="matrix(0.16339843,0,0,0.16339843,0,-2.55843e-6)"><g
       id="g5"><g
         id="Cogwheel"><g
           id="g8"><path
             d="m 580.042,262.414 -50.681,-8.453 c -5.834,-25.13 -15.799,-48.635 -29.146,-69.864 l 28.229,-39.512 c 10.767,-15.07 9.063,-35.707 -4.036,-48.807 l -8.187,-8.185 C 503.12,74.492 482.486,72.79 467.414,83.557 l -39.531,28.229 C 406.673,98.437 383.168,88.492 358.019,82.64 L 349.567,31.959 C 346.507,13.521 330.537,0 311.853,0 l -11.705,0 c -18.705,0 -34.655,13.521 -37.734,31.958 l -8.453,50.681 c -25.13,5.833 -48.635,15.797 -69.864,29.146 L 144.604,83.556 C 129.534,72.788 108.878,74.51 95.778,87.592 l -8.186,8.185 c -13.081,13.101 -14.803,33.756 -4.035,48.826 l 28.229,39.512 c -13.349,21.21 -23.294,44.714 -29.146,69.864 l -50.681,8.453 C 13.521,265.493 0,281.462 0,300.148 l 0,11.705 c 0,18.704 13.521,34.654 31.958,37.733 l 50.681,8.453 c 5.833,25.13 15.797,48.635 29.146,69.863 l -28.229,39.513 c -10.768,15.07 -9.065,35.706 4.035,48.807 l 8.186,8.187 c 13.101,13.101 33.737,14.803 48.807,4.036 l 39.531,-28.229 c 21.21,13.35 44.714,23.313 69.864,29.146 l 8.453,50.681 c 3.06,18.437 19.029,31.958 37.715,31.958 l 11.685,0 c 18.704,0 34.654,-13.521 37.733,-31.958 l 8.452,-50.681 c 25.132,-5.834 48.637,-15.799 69.864,-29.146 l 39.531,28.229 c 15.07,10.767 35.706,9.063 48.807,-4.036 l 8.187,-8.187 c 13.101,-13.101 14.803,-33.735 4.036,-48.807 l -28.229,-39.513 c 13.349,-21.209 23.294,-44.715 29.146,-69.863 l 50.681,-8.453 C 598.478,346.507 612,330.537 612,311.853 l 0,-11.705 c 0,-18.686 -13.521,-34.655 -31.958,-37.734 z M 306,420.75 c -63.38,0 -114.75,-51.37 -114.75,-114.75 0,-63.38 51.37,-114.75 114.75,-114.75 63.38,0 114.75,51.37 114.75,114.75 0,63.38 -51.37,114.75 -114.75,114.75 z"
             id="path10"
             inkscape:connector-curvature="0" /></g></g></g></g><g
     id="g12"
     transform="translate(0,-512)" /><g
     id="g14"
     transform="translate(0,-512)" /><g
     id="g16"
     transform="translate(0,-512)" /><g
     id="g18"
     transform="translate(0,-512)" /><g
     id="g20"
     transform="translate(0,-512)" /><g
     id="g22"
     transform="translate(0,-512)" /><g
     id="g24"
     transform="translate(0,-512)" /><g
     id="g26"
     transform="translate(0,-512)" /><g
     id="g28"
     transform="translate(0,-512)" /><g
     id="g30"
     transform="translate(0,-512)" /><g
     id="g32"
     transform="translate(0,-512)" /><g
     id="g34"
     transform="translate(0,-512)" /><g
     id="g36"
     transform="translate(0,-512)" /><g
     id="g38"
     transform="translate(0,-512)" /><g
     id="g40"
     transform="translate(0,-512)" /></svg>